<svg xmlns="http://www.w3.org/2000/svg" viewBox="0 0 80 56" width="80" height="56" role="img"><rect width="80" height="56" fill="#fff"/><rect y="0.000" width="80" height="4.308" fill="#B22234"/><rect y="8.615" width="80" height="4.308" fill="#B22234"/><rect y="17.231" width="80" height="4.308" fill="#B22234"/><rect y="25.846" width="80" height="4.308" fill="#B22234"/><rect y="34.462" width="80" height="4.308" fill="#B22234"/><rect y="43.077" width="80" height="4.308" fill="#B22234"/><rect y="51.692" width="80" height="4.308" fill="#B22234"/><rect width="36" height="30" fill="#3C3B6E"/><circle cx="4.0" cy="4" r="1" fill="#fff"/><circle cx="9.2" cy="4" r="1" fill="#fff"/><circle cx="14.4" cy="4" r="1" fill="#fff"/><circle cx="19.6" cy="4" r="1" fill="#fff"/><circle cx="24.8" cy="4" r="1" fill="#fff"/><circle cx="30.0" cy="4" r="1" fill="#fff"/><circle cx="4.0" cy="9" r="1" fill="#fff"/><circle cx="9.2" cy="9" r="1" fill="#fff"/><circle cx="14.4" cy="9" r="1" fill="#fff"/><circle cx="19.6" cy="9" r="1" fill="#fff"/><circle cx="24.8" cy="9" r="1" fill="#fff"/><circle cx="30.0" cy="9" r="1" fill="#fff"/><circle cx="4.0" cy="14" r="1" fill="#fff"/><circle cx="9.2" cy="14" r="1" fill="#fff"/><circle cx="14.4" cy="14" r="1" fill="#fff"/><circle cx="19.6" cy="14" r="1" fill="#fff"/><circle cx="24.8" cy="14" r="1" fill="#fff"/><circle cx="30.0" cy="14" r="1" fill="#fff"/><circle cx="4.0" cy="19" r="1" fill="#fff"/><circle cx="9.2" cy="19" r="1" fill="#fff"/><circle cx="14.4" cy="19" r="1" fill="#fff"/><circle cx="19.6" cy="19" r="1" fill="#fff"/><circle cx="24.8" cy="19" r="1" fill="#fff"/><circle cx="30.0" cy="19" r="1" fill="#fff"/><circle cx="4.0" cy="24" r="1" fill="#fff"/><circle cx="9.2" cy="24" r="1" fill="#fff"/><circle cx="14.4" cy="24" r="1" fill="#fff"/><circle cx="19.6" cy="24" r="1" fill="#fff"/><circle cx="24.8" cy="24" r="1" fill="#fff"/><circle cx="30.0" cy="24" r="1" fill="#fff"/></svg>