<?xml version="1.0" encoding="UTF-8" standalone="no"?>
<svg viewBox="0 0 2002 423" version="1.1" xmlns="http://www.w3.org/2000/svg" role="img" aria-label="Atlas Rouge" style="fill-rule:evenodd;clip-rule:evenodd;stroke-linejoin:round;stroke-miterlimit:2;">
    <g transform="matrix(1,0,0,1,-499.091171,-788.757247)">
        <g>
            <g id="mountain" transform="matrix(1.638149,0,0,1.638149,119.040683,310.349079)">
                <path d="M795,324.575C761.921,351.111 754.083,356.962 752.227,356.507C750.977,356.201 743.616,353.052 735.869,349.51L721.785,343.069L688.954,361.937C670.897,372.314 654.633,381.258 652.811,381.811C650.99,382.365 638.279,385.446 624.564,388.658C610.849,391.87 600.309,394.628 601.142,394.789C601.975,394.949 614.67,393.068 629.354,390.608L656.053,386.135L675.276,376.921C685.849,371.853 700.669,364.629 708.209,360.867L721.919,354.027L733.209,358.128C739.419,360.384 744.851,362.551 745.279,362.944C745.707,363.336 739.857,368.771 732.279,375.02C724.701,381.269 718.313,386.521 718.083,386.691C717.854,386.861 717.947,387.28 718.29,387.623C718.633,387.966 745.232,370.704 777.398,349.263L835.884,310.28L894.192,349.118C926.261,370.478 952.837,387.965 953.25,387.977C955.289,388.039 952.877,385.688 941.488,376.514C933.894,370.397 929.558,366.273 930.296,365.869C931.697,365.101 962.024,358 963.901,358C964.596,358 976.703,364.358 990.804,372.128L1016.442,386.257L1042.471,390.641C1056.787,393.052 1069.369,394.907 1070.431,394.763C1071.493,394.618 1060.018,391.622 1044.931,388.105L1017.5,381.71L991.928,364.855C977.864,355.585 965.582,348 964.636,348C963.689,348 957.421,349.768 950.707,351.928C943.993,354.089 934.774,356.981 930.22,358.356L921.94,360.856L878.968,326.428C855.333,307.493 835.884,292.019 835.748,292.042C835.611,292.066 817.275,306.705 795,324.575" style="fill:rgb(181,83,58);"/>
            </g>
            <g transform="matrix(1.638149,0,0,1.638149,119.040683,310.349079)">
                <path d="M731.369,456.458C723.898,458.125 720.515,459.827 716.178,464.103C711.5,468.715 709.805,472.492 709.288,479.455C708.902,484.655 709.235,486.263 711.67,490.954C713.588,494.651 715.984,497.413 719.107,499.53C721.641,501.247 730.416,505.024 738.607,507.923C751.167,512.367 754.087,513.799 757.25,517.058C760.527,520.435 761,521.529 761,525.727C761,532.181 758.306,536.929 752.901,540C749.106,542.156 747.26,542.5 739.5,542.5C731.49,542.5 729.785,542.158 724,539.391C720.425,537.68 716.239,535.093 714.698,533.641C713.158,532.188 711.583,531.003 711.198,531.006C710.814,531.01 709.739,532.349 708.81,533.983L707.12,536.953L710.81,540.011C719.2,546.962 732.08,550.735 743.803,549.676C752.798,548.863 756.943,547.556 762.677,543.723C774.374,535.906 776.664,517.637 767.197,507.657C763.671,503.939 757.187,500.69 742.517,495.288C735.927,492.861 729.053,489.96 727.243,488.841C722.733,486.054 720.659,481.72 721.264,476.349C721.931,470.434 724.325,467.189 729.834,464.733C739.215,460.55 752.703,462.745 761.797,469.934L766.553,473.693L768.363,471.294C769.359,469.974 769.94,468.285 769.654,467.542C768.825,465.381 760.295,459.95 754.668,458C747.246,455.428 738.562,454.853 731.369,456.458M1034.5,455.65C1028.398,456.44 1022.366,458.218 1017.5,460.659C1001.505,468.686 991.768,484.531 991.826,502.438C991.874,516.865 996.84,528.083 1007.488,537.815C1022.368,551.414 1044.45,553.806 1063.142,543.844C1071.072,539.617 1078.293,531.688 1082.792,522.266L1086.5,514.5L1086.5,490.395L1082.747,482.803C1080.683,478.627 1076.987,472.977 1074.533,470.248C1069.854,465.044 1059.599,458.963 1052.5,457.182C1047.44,455.913 1038.407,455.144 1034.5,455.65M1292.938,456.037C1272.214,459.183 1256.606,474.434 1252.903,495.156C1249.764,512.72 1258.193,532.498 1272.815,541.881C1275.481,543.592 1280.325,545.968 1283.581,547.162C1288.401,548.929 1291.728,549.338 1301.5,549.365C1314.567,549.401 1319.134,548.464 1328.5,543.826C1338.511,538.869 1338,540.133 1338,520.345L1338,503L1300,503L1300,510L1326,510L1326,535.853L1320.75,538.401C1304.725,546.178 1286.83,543.623 1275.911,532C1262.445,517.667 1262.262,488.936 1275.541,474.165C1283.654,465.142 1294.802,461.273 1307.508,463.072C1314.768,464.101 1322.927,467.648 1327.055,471.572C1328.46,472.907 1330.096,474 1330.69,474C1331.284,474 1332.527,472.845 1333.452,471.433C1335.476,468.344 1334.878,467.404 1328.173,463.133C1318.742,457.124 1304.572,454.271 1292.938,456.037M272.829,464.25C265.939,477.805 232,547.039 232,547.538C232,547.792 233.82,548 236.045,548L240.09,548L249.923,527.75C255.332,516.612 263.142,500.676 267.281,492.336L274.805,477.172L308.665,547.5L315.415,547.798C320.937,548.041 322.104,547.828 321.832,546.626C321.207,543.861 278.502,456.086 277.761,456.043C277.355,456.019 275.135,459.712 272.829,464.25M617.862,464.25C600.09,499.492 577,546.502 577,547.442C577,547.749 578.772,548 580.937,548L584.874,548L596.677,523.75C603.169,510.413 610.974,494.384 614.023,488.131L619.566,476.761L636.748,512.131L653.93,547.5L660.548,547.798L667.165,548.095L666.489,545.965C666.117,544.793 659.049,530.034 650.783,513.167C642.516,496.3 632.903,476.538 629.421,469.25C625.938,461.962 622.848,456 622.555,456C622.262,456 620.15,459.712 617.862,464.25M343.384,458.442C343.08,459.234 342.987,460.697 343.178,461.692L343.526,463.5L377,464.048L377,548L389,548L389,464L423,464L423,457L383.469,457C349.964,457 343.853,457.22 343.384,458.442M469,502.5L469,548L533.127,548L532.813,544.75L532.5,541.5L481.028,540.966L481.031,502.233C481.033,480.93 481.026,462.038 481.017,460.25L481,457L469,457L469,502.5M881,502.5L881,548L894,548L894,510L916.5,510.018L928.5,528.981L940.5,547.945L947.75,547.973C951.737,547.988 955,547.803 955,547.563C955,547.322 949.375,538.554 942.5,528.079C935.625,517.603 930,508.849 930,508.625C930,508.401 931.811,507.493 934.024,506.607C939.703,504.335 946.59,497.64 948.563,492.474C949.74,489.393 950.115,486.038 949.836,481.096C949.508,475.295 948.922,473.35 946.439,469.817C944.788,467.469 941.427,464.315 938.969,462.808C931.118,457.995 924.746,457 901.79,457L881,457L881,502.5M1132,487.818C1132,512.826 1132.296,519.661 1133.568,524.068C1135.365,530.298 1140.676,538.645 1144.765,541.668C1153.111,547.839 1163.716,550.613 1175.542,549.718C1189.034,548.698 1199.477,541.929 1204.97,530.642C1206.615,527.264 1209.008,517.5 1209.008,517.5C1209.008,517.5 1209.934,498.947 1209.778,484L1209.5,457.5L1205.827,457.194L1202.153,456.888L1201.761,487.694C1201.314,522.814 1200.759,526.052 1193.91,533.482C1188.478,539.375 1181.519,542.219 1172.387,542.278C1166.523,542.316 1164.154,541.821 1159.642,539.614C1156.111,537.886 1152.983,535.382 1151.017,532.709C1145.251,524.868 1144.755,521.574 1144.249,487.75L1143.788,457L1132,457L1132,487.818M1389,502.5L1389,548L1454,548L1454,541L1402,541L1402,506L1443.127,506L1442.813,502.75L1442.5,499.5L1401.999,499.5L1401.999,481.75L1402,464L1453,464L1453,457L1389,457L1389,502.5M1031.801,463.373C1020.864,465.762 1011.626,474.56 1007.518,486.5C1005.224,493.167 1004.461,506.099 1005.94,513.219C1008.536,525.709 1015.925,535.767 1025.878,540.358C1029.507,542.032 1032.433,542.491 1039.5,542.495C1047.034,542.499 1049.31,542.101 1053.474,540.052C1064.134,534.806 1071.185,524.106 1073.231,510.067C1075.391,495.25 1071.14,480.491 1062.176,471.686C1059.604,469.16 1055.475,466.221 1053,465.155C1046.955,462.552 1038.726,461.86 1031.801,463.373M894,483.59L894,503.179L909.25,502.84L924.5,502.5L928.2,500.2C933.165,497.112 936.022,492.185 936.709,485.526C937.738,475.556 933.175,468.176 924.101,465.138C922.231,464.512 914.694,464 907.351,464L894,464L894,483.59" style="fill:rgb(250,247,241);"/>
            </g>
        </g>
    </g>
</svg>
