
    <svg xmlns="http://www.w3.org/2000/svg" viewBox="0 0 900 620" width="900" height="620">
      <defs>
        <linearGradient id="g" x1="0" x2="1" y1="0" y2="1">
          <stop offset="0" stop-color="#D8C0B4"/>
          <stop offset="1" stop-color="#4B514E"/>
        </linearGradient>
        <linearGradient id="glass" x1="0" x2="1">
          <stop offset="0" stop-color="#F9F6F0" stop-opacity=".88"/>
          <stop offset="1" stop-color="#C9D2CF" stop-opacity=".76"/>
        </linearGradient>
      </defs>
      <rect width="900" height="620" fill="url(#g)"/>
      <circle cx="140" cy="110" r="88" fill="#fff" opacity=".23"/>
      <rect x="90" y="420" width="760" height="200" fill="#5C645E" opacity=".28"/>
      <path d="M110 360 L415 170 L800 360 Z" fill="#2B2C29" opacity=".84"/>
      <path d="M160 358 L420 210 L755 358 Z" fill="#B35A3D" opacity=".86"/>
      <rect x="160" y="355" width="590" height="190" rx="18" fill="#F7F3EC"/>
      <rect x="205" y="395" width="155" height="110" rx="10" fill="url(#glass)"/>
      <rect x="395" y="395" width="155" height="110" rx="10" fill="url(#glass)"/>
      <rect x="590" y="390" width="105" height="155" rx="10" fill="#272826"/>
      <rect x="95" y="520" width="720" height="34" rx="17" fill="#1F1F1F" opacity=".18"/>
      <path d="M0 570 C160 520 270 598 430 548 C600 492 720 560 900 520 L900 620 L0 620 Z" fill="#EFF1F3" opacity=".72"/>
    </svg>
    