<svg xmlns="http://www.w3.org/2000/svg" viewBox="0 0 483.20 242.89" width="483.20" height="242.89" role="img" aria-label="Atlas Rouge — Luxury Real Estate, Marrakech"><g transform="translate(20,222.89432982984664)"><path transform="translate(0.000,0) scale(0.320000,-0.320000)" d="M216.349853515625 310.0009765625 231.349853515625 335.5257568359375H437.349853515625L444.349853515625 310.0009765625ZM710.6744384765625 12Q715.3994140625 12 715.3994140625 6.0Q715.3994140625 0 710.6744384765625 0Q681.2244873046875 0 649.549560546875 2.0Q617.8746337890625 4 588.69970703125 4Q555.5247802734375 4 531.2123413085938 2.0Q506.89990234375 0 477 0Q473 0 473.0 6.0Q473 12 477 12Q522.1253662109375 12 530.8255615234375 28.08746337890625Q539.5257568359375 44.1749267578125 516.1759033203125 91.249755859375L306.850341796875 515.6268310546875L347.599609375 582.650146484375L150.249755859375 136.7745361328125Q123.7998046875 76.49951171875 148.4246826171875 44.249755859375Q173.049560546875 12 232.349853515625 12Q237.349853515625 12 237.349853515625 6.0Q237.349853515625 0 232.349853515625 0Q202.349853515625 0 177.349853515625 2.0Q152.349853515625 4 114.349853515625 4Q76.449951171875 4 53.5 2.0Q30.550048828125 0 -2.349853515625 0Q-6.349853515625 0 -6.349853515625 6.0Q-6.349853515625 12 -2.349853515625 12Q24.650146484375 12 44.28765869140625 23.08746337890625Q63.9251708984375 34.1749267578125 82.8751220703125 63.43731689453125Q101.8250732421875 92.69970703125 125.449951171875 146.49951171875L340.249755859375 630.650146484375Q341.5247802734375 633.650146484375 348.56219482421875 634.0126342773438Q355.599609375 634.3751220703125 356.599609375 630.650146484375L601.649169921875 137Q625.3741455078125 89.1749267578125 643.0116577148438 61.6749267578125Q660.649169921875 34.1749267578125 676.8367309570312 23.08746337890625Q693.0242919921875 12 710.6744384765625 12Z" fill="#172033"/><path transform="translate(222.720,0) scale(0.320000,-0.320000)" d="M538.250732421875 0Q522.70068359375 0 487.68804931640625 39.41253662109375Q452.6754150390625 78.8250732421875 403.4752197265625 152.60009765625Q354.2750244140625 226.3751220703125 292.7998046875 328.650146484375L372.69873046875 354.0748291015625Q454.348876953125 228.0748291015625 511.81146240234375 153.1248779296875Q569.2740478515625 78.1749267578125 613.8240966796875 45.08746337890625Q658.3741455078125 12 699.19921875 12Q701.4742431640625 12 701.4742431640625 6.0Q701.4742431640625 0 699.19921875 0Q636.0748291015625 0 596.3377075195312 0.0Q556.6005859375 0 538.250732421875 0ZM295.1243896484375 628Q383.8240966796875 628 431.848876953125 594.5Q479.8736572265625 561 479.8736572265625 501.550048828125Q479.8736572265625 463.8250732421875 461.9237060546875 429.96258544921875Q443.9737548828125 396.10009765625 413.88629150390625 369.8751220703125Q383.798828125 343.650146484375 345.43634033203125 328.650146484375Q307.0738525390625 313.650146484375 266.248779296875 313.650146484375Q253.6239013671875 313.650146484375 239.81146240234375 313.78765869140625Q225.9990234375 313.9251708984375 214.549072265625 314.9251708984375V81Q214.549072265625 52 219.8240966796875 37.0Q225.09912109375 22 241.33673095703125 17.0Q257.5743408203125 12 290.49951171875 12Q292.7745361328125 12 292.7745361328125 6.0Q292.7745361328125 0 290.49951171875 0Q265.049560546875 0 234.01214599609375 1.0Q202.9747314453125 2 165.7998046875 2Q130.89990234375 2 99.08746337890625 1.0Q67.2750244140625 0 41.8250732421875 0Q39.10009765625 0 39.10009765625 6.0Q39.10009765625 12 41.8250732421875 12Q74.750244140625 12 90.98785400390625 17.0Q107.2254638671875 22 113.13800048828125 37.0Q119.050537109375 52 119.050537109375 81V544Q119.050537109375 573 113.63800048828125 587.5Q108.2254638671875 602 92.1253662109375 607.5Q76.0252685546875 613 43.10009765625 613Q40.8250732421875 613 40.8250732421875 619.0Q40.8250732421875 625 43.10009765625 625Q68.2750244140625 625 99.58746337890625 623.5Q130.89990234375 622 165.7998046875 622Q194.69970703125 622 229.9246826171875 625.0Q265.149658203125 628 295.1243896484375 628ZM381.10009765625 464.650146484375Q381.10009765625 522.2750244140625 367.58746337890625 553.550048828125Q354.0748291015625 584.8250732421875 330.8746337890625 597.0126342773438Q307.6744384765625 609.2001953125 277.9241943359375 609.2001953125Q254.649169921875 609.2001953125 240.73663330078125 603.5252685546875Q226.8240966796875 597.850341796875 220.68658447265625 583.2128295898438Q214.549072265625 568.5753173828125 214.549072265625 542V342.550048828125Q228.549072265625 340.8250732421875 244.68658447265625 339.68756103515625Q260.8240966796875 338.550048828125 273.09912109375 338.550048828125Q331.599609375 338.550048828125 356.349853515625 365.78765869140625Q381.10009765625 393.0252685546875 381.10009765625 464.650146484375Z" fill="#172033"/></g></svg>
