<svg xmlns="http://www.w3.org/2000/svg" viewBox="0 0 2127.28 237.56" width="2127.28" height="237.56" role="img" aria-label="Atlas Rouge — Luxury Real Estate, Marrakech"><g transform="translate(28,28)"><g transform="translate(0,0)"><path d="M 5.100 170.000 L 68.000 0 L 130.900 170.000" fill="none" stroke="#172033" stroke-width="18.700" stroke-linecap="butt" stroke-linejoin="miter"/><path d="M 200.600 0 H 346.800 V 22.100 H 285.600 V 170.000 H 261.800 V 22.100 H 200.600 Z" fill="#172033"/><path d="M 404.600 0 H 428.400 V 146.200 H 533.800 V 170.000 H 404.600 Z" fill="#172033"/><path d="M 596.700 170.000 L 659.600 0 L 722.500 170.000" fill="none" stroke="#172033" stroke-width="18.700" stroke-linecap="butt" stroke-linejoin="miter"/><g transform="translate(792.200,0)"><path transform="translate(-6.716,167.191) scale(0.114154,-0.114154)" d="M661.4468994140625 -24.60791015625Q496.6627197265625 -24.60791015625 369.89520263671875 29.2203369140625Q243.127685546875 83.048583984375 163.480224609375 187.332763671875Q83.832763671875 291.616943359375 58.832763671875 441.9847412109375L302.1644287109375 491.7598876953125Q309.4683837890625 326.0062255859375 400.453125 238.68109130859375Q491.4378662109375 151.35595703125 655.68701171875 151.35595703125Q757.4073486328125 151.35595703125 825.5759887695312 182.92431640625Q893.74462890625 214.49267578125 928.59716796875 270.94549560546875Q963.44970703125 327.3983154296875 963.44970703125 402.127685546875Q963.44970703125 505.4649658203125 900.2415161132812 556.7734375Q837.0333251953125 608.0819091796875 729.440673828125 631.2581787109375L552.990966796875 669.6107177734375Q494.7598876953125 682.066650390625 423.14434814453125 704.0545043945312Q351.52880859375 726.0423583984375 286.31298828125 768.1821899414062Q221.09716796875 810.322021484375 178.59716796875 881.3098754882812Q136.09716796875 952.2977294921875 136.09716796875 1061.753662109375Q136.09716796875 1201.5135498046875 207.82513427734375 1290.401123046875Q279.5531005859375 1379.2886962890625 396.86468505859375 1421.9483032226562Q514.17626953125 1464.60791015625 650.9271240234375 1464.60791015625Q801.294921875 1464.60791015625 912.1262817382812 1417.2598876953125Q1022.9576416015625 1369.911865234375 1092.4850463867188 1282.2279663085938Q1162.012451171875 1194.5440673828125 1185.620361328125 1071.4163818359375L946.2005615234375 1021.4892578125Q937.8966064453125 1106.6502685546875 903.480224609375 1166.046875Q869.0638427734375 1225.4434814453125 805.86328125 1257.0437622070312Q742.6627197265625 1288.64404296875 646.0062255859375 1288.64404296875Q565.76611328125 1288.64404296875 499.90142822265625 1265.4799194335938Q434.0367431640625 1242.3157958984375 394.52008056640625 1195.1912231445312Q355.00341796875 1148.066650390625 355.00341796875 1075.0333251953125Q355.00341796875 992.9847412109375 416.85906982421875 945.1322021484375Q478.7147216796875 897.2796630859375 612.699462890625 867.559326171875L791.6051025390625 827.3587646484375Q893.364990234375 805.2706298828125 984.9607543945312 759.11865234375Q1076.5565185546875 712.9666748046875 1133.92431640625 629.5548095703125Q1191.2921142578125 546.1429443359375 1191.2921142578125 410.0791015625Q1191.2921142578125 271.8875732421875 1126.4486083984375 174.519775390625Q1061.6051025390625 77.1519775390625 942.69775390625 26.27203369140625Q823.7904052734375 -24.60791015625 661.4468994140625 -24.60791015625Z" fill="#172033"/></g></g><g transform="translate(1020.075,-2.040)"><g transform="translate(0,179.722)"><path transform="translate(0.000,0) scale(0.282581,-0.282581)" d="M538.250732421875 0Q522.70068359375 0 487.68804931640625 39.41253662109375Q452.6754150390625 78.8250732421875 403.4752197265625 152.60009765625Q354.2750244140625 226.3751220703125 292.7998046875 328.650146484375L372.69873046875 354.0748291015625Q454.348876953125 228.0748291015625 511.81146240234375 153.1248779296875Q569.2740478515625 78.1749267578125 613.8240966796875 45.08746337890625Q658.3741455078125 12 699.19921875 12Q701.4742431640625 12 701.4742431640625 6.0Q701.4742431640625 0 699.19921875 0Q636.0748291015625 0 596.3377075195312 0.0Q556.6005859375 0 538.250732421875 0ZM295.1243896484375 628Q383.8240966796875 628 431.848876953125 594.5Q479.8736572265625 561 479.8736572265625 501.550048828125Q479.8736572265625 463.8250732421875 461.9237060546875 429.96258544921875Q443.9737548828125 396.10009765625 413.88629150390625 369.8751220703125Q383.798828125 343.650146484375 345.43634033203125 328.650146484375Q307.0738525390625 313.650146484375 266.248779296875 313.650146484375Q253.6239013671875 313.650146484375 239.81146240234375 313.78765869140625Q225.9990234375 313.9251708984375 214.549072265625 314.9251708984375V81Q214.549072265625 52 219.8240966796875 37.0Q225.09912109375 22 241.33673095703125 17.0Q257.5743408203125 12 290.49951171875 12Q292.7745361328125 12 292.7745361328125 6.0Q292.7745361328125 0 290.49951171875 0Q265.049560546875 0 234.01214599609375 1.0Q202.9747314453125 2 165.7998046875 2Q130.89990234375 2 99.08746337890625 1.0Q67.2750244140625 0 41.8250732421875 0Q39.10009765625 0 39.10009765625 6.0Q39.10009765625 12 41.8250732421875 12Q74.750244140625 12 90.98785400390625 17.0Q107.2254638671875 22 113.13800048828125 37.0Q119.050537109375 52 119.050537109375 81V544Q119.050537109375 573 113.63800048828125 587.5Q108.2254638671875 602 92.1253662109375 607.5Q76.0252685546875 613 43.10009765625 613Q40.8250732421875 613 40.8250732421875 619.0Q40.8250732421875 625 43.10009765625 625Q68.2750244140625 625 99.58746337890625 623.5Q130.89990234375 622 165.7998046875 622Q194.69970703125 622 229.9246826171875 625.0Q265.149658203125 628 295.1243896484375 628ZM381.10009765625 464.650146484375Q381.10009765625 522.2750244140625 367.58746337890625 553.550048828125Q354.0748291015625 584.8250732421875 330.8746337890625 597.0126342773438Q307.6744384765625 609.2001953125 277.9241943359375 609.2001953125Q254.649169921875 609.2001953125 240.73663330078125 603.5252685546875Q226.8240966796875 597.850341796875 220.68658447265625 583.2128295898438Q214.549072265625 568.5753173828125 214.549072265625 542V342.550048828125Q228.549072265625 340.8250732421875 244.68658447265625 339.68756103515625Q260.8240966796875 338.550048828125 273.09912109375 338.550048828125Q331.599609375 338.550048828125 356.349853515625 365.78765869140625Q381.10009765625 393.0252685546875 381.10009765625 464.650146484375Z" fill="#172033"/><path transform="translate(215.892,0) scale(0.282581,-0.282581)" d="M366 -12Q294 -12 235.5 13.5Q177 39 135.5 84.0Q94 129 71.5 187.5Q49 246 49 312Q49 393 80.5 454.0Q112 515 164.0 555.5Q216 596 278.0 616.0Q340 636 401 636Q475 636 533.5 609.5Q592 583 633.0 538.0Q674 493 695.5 436.0Q717 379 717 319Q717 249 689.0 189.0Q661 129 612.5 84.0Q564 39 500.5 13.5Q437 -12 366 -12ZM399.8250732421875 11.6248779296875Q459.6754150390625 11.6248779296875 507.250732421875 43.76239013671875Q554.8260498046875 75.89990234375 582.5262451171875 138.31243896484375Q610.2264404296875 200.7249755859375 610.2264404296875 290.2750244140625Q610.2264404296875 383.10009765625 579.8887329101562 455.23760986328125Q549.551025390625 527.3751220703125 493.70068359375 568.8751220703125Q437.850341796875 610.3751220703125 360.449951171875 610.3751220703125Q262.5743408203125 610.3751220703125 209.1739501953125 540.550048828125Q155.7735595703125 470.7249755859375 155.7735595703125 348.1749267578125Q155.7735595703125 276 173.73614501953125 214.5Q191.69873046875 153 224.39892578125 107.2249755859375Q257.09912109375 61.449951171875 301.76190185546875 36.53741455078125Q346.4246826171875 11.6248779296875 399.8250732421875 11.6248779296875Z" fill="#172033"/><path transform="translate(453.543,0) scale(0.282581,-0.282581)" d="M571.2750244140625 503.3255615234375Q571.2750244140625 554.950439453125 547.8751220703125 583.9752197265625Q524.4752197265625 613 480.4752197265625 613Q478.2001953125 613 478.2001953125 619.0Q478.2001953125 625 480.4752197265625 625Q504.650146484375 625 530.3250732421875 623.5Q556 622 586.1749267578125 622Q612.0748291015625 622 637.3872680664062 623.5Q662.69970703125 625 683.8746337890625 625Q685.8746337890625 625 685.8746337890625 619.0Q685.8746337890625 613 683.8746337890625 613Q643.8746337890625 613 622.9246826171875 583.9752197265625Q601.9747314453125 554.950439453125 601.9747314453125 503.3255615234375V223.1253662109375Q601.9747314453125 149.9251708984375 571.5247802734375 96.73760986328125Q541.0748291015625 43.550048828125 486.03741455078125 14.91253662109375Q431 -13.7249755859375 357.3751220703125 -13.7249755859375Q284.10009765625 -13.7249755859375 227.28765869140625 14.68756103515625Q170.4752197265625 43.10009765625 138.66278076171875 95.8751220703125Q106.850341796875 148.650146484375 106.850341796875 222.10009765625V544Q106.850341796875 573 101.43780517578125 587.5Q96.0252685546875 602 79.56268310546875 607.5Q63.10009765625 613 30.89990234375 613Q28.1749267578125 613 28.1749267578125 619.0Q28.1749267578125 625 30.89990234375 625Q56.349853515625 625 87.5247802734375 623.5Q118.69970703125 622 153.8746337890625 622Q190.7745361328125 622 222.08697509765625 623.5Q253.3994140625 625 277.5743408203125 625Q280.5743408203125 625 280.5743408203125 619.0Q280.5743408203125 613 277.5743408203125 613Q245.3741455078125 613 229.2740478515625 607.0Q213.1739501953125 601 207.53643798828125 586.0Q201.89892578125 571 201.89892578125 542V257.10009765625Q201.89892578125 135.4752197265625 252.549072265625 78.2750244140625Q303.19921875 21.0748291015625 389.8746337890625 21.0748291015625Q475.349853515625 21.0748291015625 523.3124389648438 73.63751220703125Q571.2750244140625 126.2001953125 571.2750244140625 222.1253662109375Z" fill="#172033"/><path transform="translate(672.826,0) scale(0.282581,-0.282581)" d="M407.6248779296875 -12Q294.89990234375 -12 214.45116886091822 30.57880169412364Q134.00243537808643 73.15760338824728 91.50121768904322 145.29110272888028Q49 217.42460206951327 49 305.58776793028693Q49 379.7249755859375 77.5 440.2249755859375Q106 500.7249755859375 157.5 544.3624877929688Q209 588 278.04401988033794 612.0Q347.0880397606759 636 428.550048828125 636Q474.3751220703125 636 521.6375122070312 628.3124389648438Q568.89990234375 620.6248779296875 598.6248779296875 605.9747314453125Q607.6248779296875 601.8746337890625 609.5748291015625 597.5121459960938Q611.5247802734375 593.149658203125 612.5805476262019 583.2332010020381L625.249755859375 453.07970023777176Q625.249755859375 450.6005859375 620.1122436523438 449.46307373046875Q614.9747314453125 448.3255615234375 613.3947509765625 452.47818796258224Q583.3751220703125 527.2254638671875 523.3877563476562 568.9378051757812Q463.400390625 610.650146484375 381.750244140625 610.650146484375Q269.7745361328125 610.650146484375 211.7740478515625 537.8751220703125Q153.7735595703125 465.10009765625 153.7735595703125 342.89990234375Q153.7735595703125 242.7249755859375 190.19873046875 166.5Q226.6239013671875 90.2750244140625 289.484608968099 47.63751220703125Q352.34531656901044 5 432.349853515625 5Q474.1064147949219 5 499.07847595214844 14.0Q524.050537109375 23 535.5131225585938 49.0Q546.9757080078125 75 546.9757080078125 126Q546.9757080078125 174 541.1945397328523 196.5Q535.4133714578919 219 513.6228141138109 226.0Q491.8322567697299 233 442.91467905852755 233Q437.0252685546875 233 437.0252685546875 241.0Q437.0252685546875 249 442.0252685546875 249Q509.10009765625 245 563.8442753659019 244.5Q618.5884530755538 244 678.69970703125 247Q683.69970703125 247 683.69970703125 240.0Q683.69970703125 233 678.69970703125 233Q659.7411702473959 234 651.020243326823 226.5Q642.29931640625 219 640.0242919921875 194.0Q637.749267578125 169 637.749267578125 116Q637.749267578125 83 639.749267578125 67.0Q641.749267578125 51 643.249267578125 43.5Q644.749267578125 36 644.749267578125 28Q644.749267578125 22 642.3867797851562 20.0Q640.0242919921875 18 633.0242919921875 16Q579.3994140625 4 520.6916612069817 -4.0Q461.9839083514636 -12 407.6248779296875 -12Z" fill="#172033"/><path transform="translate(896.630,0) scale(0.282581,-0.282581)" d="M475.849365234375 0H41.8250732421875Q39.10009765625 0 39.10009765625 6.0Q39.10009765625 12 41.8250732421875 12Q74.750244140625 12 90.850341796875 17.0Q106.950439453125 22 112.36297607421875 37.0Q117.7755126953125 52 117.7755126953125 81V544Q117.7755126953125 573 112.36297607421875 587.5Q106.950439453125 602 90.850341796875 607.5Q74.750244140625 613 41.8250732421875 613Q39.10009765625 613 39.10009765625 619.0Q39.10009765625 625 41.8250732421875 625H458.1243896484375Q467.849365234375 625 467.849365234375 616L469.849365234375 486.30029296875Q469.849365234375 484.0252685546875 464.71185302734375 483.30029296875Q459.5743408203125 482.5753173828125 458.1243896484375 485.5753173828125Q446.5247802734375 542.650146484375 411.550048828125 570.7001953125Q376.5753173828125 598.750244140625 319.5257568359375 598.750244140625H278.7998046875Q254.1243896484375 598.750244140625 239.61175537109375 593.3877563476562Q225.09912109375 588.0252685546875 218.96160888671875 575.3377075195312Q212.8240966796875 562.650146484375 212.8240966796875 541.6248779296875V85Q212.8240966796875 63.5247802734375 218.23663330078125 50.249755859375Q223.649169921875 36.9747314453125 235.98687744140625 31.249755859375Q248.3245849609375 25.5247802734375 270.10009765625 25.5247802734375H319.3265380859375Q386.8756103515625 25.5247802734375 428.9251708984375 58.349853515625Q470.9747314453125 91.1749267578125 488.849365234375 155.4246826171875Q489.5743408203125 158.4246826171875 495.21185302734375 157.19970703125Q500.849365234375 155.9747314453125 500.849365234375 153.69970703125Q496.849365234375 125.5247802734375 493.98687744140625 86.849853515625Q491.1243896484375 48.1749267578125 491.1243896484375 15Q491.1243896484375 0 475.849365234375 0ZM419.849365234375 226.30029296875Q419.849365234375 268.400390625 392.149658203125 290.38775634765625Q364.449951171875 312.3751220703125 307.750244140625 312.3751220703125H167.5247802734375V337.89990234375H309.30029296875Q364.7249755859375 337.89990234375 391.78717041015625 357.0247802734375Q418.849365234375 376.149658203125 418.849365234375 411.9747314453125Q418.849365234375 414.69970703125 424.48687744140625 414.69970703125Q430.1243896484375 414.69970703125 430.1243896484375 411.9747314453125Q430.1243896484375 380.0748291015625 429.6243896484375 362.26239013671875Q429.1243896484375 344.449951171875 429.1243896484375 325Q429.1243896484375 300.8250732421875 430.48687744140625 277.51263427734375Q431.849365234375 254.2001953125 431.849365234375 226.30029296875Q431.849365234375 224.30029296875 425.849365234375 224.30029296875Q419.849365234375 224.30029296875 419.849365234375 226.30029296875Z" fill="#172033"/></g></g></g></svg>
