<svg xmlns="http://www.w3.org/2000/svg" viewBox="0 0 1920 1080" width="1920" height="1080" role="img" aria-label="Atlas Rouge logo concept"><rect width="1920" height="1080" fill="#0F1419"/><path d="M 659.00 341.12 C 779.40 292.96, 889.48 275.76, 960.00 280.92 C 1059.76 287.80, 1152.64 320.48, 1261.00 341.12" fill="none" stroke="#315C45" stroke-width="1.38" stroke-linecap="round"/><path d="M 717.48 365.20 C 844.76 334.24, 923.88 327.36, 1006.44 335.96 C 1082.12 343.70, 1145.76 360.90, 1205.96 372.08" fill="none" stroke="#315C45" stroke-width="1.03" stroke-linecap="round" opacity="0.70"/><path d="M 877.44 394.44 C 927.32 383.26, 996.12 383.26, 1042.56 394.44" fill="none" stroke="#B5533A" stroke-width="2.41" stroke-linecap="round"/><g transform="translate(443.22,440.00)"><g transform="translate(0,163.363)"><path transform="translate(0.000,0) scale(0.109835,-0.109835)" d="M333.9676513671875 516.5426635742188V586.5750122070312H1039.6300048828125V516.5426635742188ZM1403.2135009765625 78.688232421875 1559.2135009765625 32.00970458984375V0H899.8770751953125V32.00970458984375L1076.5264892578125 76.688232421875L595.2535400390625 1177.92236328125L639.3150024414062 1193.97412109375L208.02587890625 79.0064697265625L392.67529296875 31.34088134765625V0H-22.3441162109375V31.34088134765625L130.6558837890625 82.0064697265625L667.9547119140625 1443.311767578125H798.2523193359375Z" fill="#F6EEE1"/><path transform="translate(159.042,0) scale(0.109835,-0.109835)" d="M435.271728515625 285.07440185546875Q435.271728515625 215.08734130859375 478.76202392578125 180.09542846679688Q522.2523193359375 145.103515625 600.9276123046875 145.103515625Q645.9308471679688 145.103515625 695.6029052734375 152.4346923828125Q745.2749633789062 159.765869140625 811.9502563476562 178.0970458984375V141.40234375Q712.596435546875 76.3699951171875 646.7361450195312 40.5194091796875Q580.8758544921875 4.6688232421875 530.8467407226562 -9.670440673828125Q480.817626953125 -24.00970458984375 428.12615966796875 -24.00970458984375Q353.73675537109375 -24.00970458984375 294.87646484375 5.501617431640625Q236.01617431640625 35.012939453125 201.50808715820312 97.69793701171875Q167 160.3829345703125 167 259.73675537109375V861.8900146484375L25.62030029296875 962.9644165039062V982.3150024414062Q36.28912353515625 989.3150024414062 64.98382568359375 1005.6607360839844Q93.67852783203125 1022.0064697265625 134.05337524414062 1045.8586730957031Q174.42822265625 1069.7108764648438 222.47027587890625 1098.2286682128906Q270.5123291015625 1126.7464599609375 321.7118835449219 1157.2593994140625Q372.91143798828125 1187.7723388671875 421.25555419921875 1216.7723388671875H435.271728515625V992.3473510742188ZM336.15203857421875 891.5879516601562V1024H779.9373168945312L761.596435546875 891.5879516601562Z" fill="#F6EEE1"/><path transform="translate(239.551,0) scale(0.109835,-0.109835)" d="M428.88232421875 60.67852783203125 552.8208618164062 29.0064697265625V0H36.00323486328125V29.0064697265625L159.9417724609375 60.67852783203125V1266.1759033203125Q146.9417724609375 1274.5167846679688 123.60897827148438 1289.3641357421875Q100.27618408203125 1304.2114868164062 68.27618408203125 1324.7308959960938Q36.27618408203125 1345.2503051757812 -2.72381591796875 1370.6073608398438V1393.62353515625L417.19085693359375 1487.3441162109375H428.88232421875V1298.6300048828125Z" fill="#F6EEE1"/><path transform="translate(296.555,0) scale(0.109835,-0.109835)" d="M685.9385375976562 656.9708862304688 690.2503051757812 610.2891235351562Q577.0064697265625 572.9773559570312 506.8958740234375 538.4951477050781Q436.7852783203125 504.012939453125 399.81439208984375 468.36029052734375Q362.843505859375 432.7076416015625 349.1876220703125 392.38616943359375Q335.53173828125 352.064697265625 335.53173828125 302.4088134765625Q335.53173828125 218.74969482421875 376.3354187011719 178.92822265625Q417.13909912109375 139.10675048828125 479.10675048828125 139.10675048828125Q524.7335205078125 139.10675048828125 558.3699951171875 157.2593994140625Q592.0064697265625 175.41204833984375 610.9886779785156 211.889404296875Q629.9708862304688 248.36676025390625 629.9708862304688 303.67529296875V770.701171875Q629.9708862304688 861.9967651367188 583.3166198730469 910.9838256835938Q536.662353515625 959.9708862304688 441.0194091796875 959.9708862304688Q394.02587890625 959.9708862304688 350.7124938964844 954.3101501464844Q307.39910888671875 948.6494140625 280.73675537109375 937.9935302734375L328.0517578125 988.02587890625Q322.71087646484375 934.6397094726562 315.54205322265625 892.1300048828125Q308.37322998046875 849.6203002929688 299.0404357910156 819.7939758300781Q289.7076416015625 789.9676513671875 277.04205322265625 773.6332397460938Q262.3699951171875 754.62353515625 232.86029052734375 742.9482421875Q203.3505859375 731.27294921875 169.3311767578125 731.27294921875Q124.97088623046875 731.27294921875 101.798828125 747.2778015136719Q78.62677001953125 763.2826538085938 78.62677001953125 793.9482421875Q78.62677001953125 837.6203002929688 121.636474609375 882.1300048828125Q164.64617919921875 926.6397094726562 234.83441162109375 964.1510314941406Q305.02264404296875 1001.662353515625 389.7254333496094 1024.5032348632812Q474.42822265625 1047.3441162109375 557.47998046875 1047.3441162109375Q681.8499755859375 1047.3441162109375 756.7054138183594 1011.3344116210938Q831.5608520507812 975.32470703125 865.2361450195312 909.8052978515625Q898.9114379882812 844.285888671875 898.9114379882812 755.2567749023438V190.6817626953125Q898.9114379882812 161.6947021484375 908.0737915039062 143.701171875Q917.2361450195312 125.7076416015625 934.3968811035156 117.54367065429688Q951.5576171875 109.37969970703125 973.8855590820312 109.37969970703125Q1003.2037963867188 109.37969970703125 1032.0220336914062 118.038818359375Q1060.8402709960938 126.69793701171875 1091.4896850585938 145.67852783203125V106.97412109375Q1015.817626953125 27 953.2998352050781 1.82794189453125Q890.7820434570312 -23.3441162109375 817.0711669921875 -23.3441162109375Q748.7076416015625 -23.3441162109375 708.3538208007812 4.326324462890625Q668 31.99676513671875 649.9886779785156 87.34735107421875Q631.9773559570312 142.69793701171875 628.9773559570312 225.40557861328125L637.3279418945312 220.389404296875Q618.6558837890625 144.01617431640625 579.987060546875 89.67044067382812Q541.3182373046875 35.32470703125 486.6494140625 6.491912841796875Q431.9805908203125 -22.34088134765625 364.97412109375 -22.34088134765625Q229.93853759765625 -22.34088134765625 149.78103637695312 46.501617431640625Q69.62353515625 115.3441162109375 69.62353515625 239.337646484375Q69.62353515625 303.3311767578125 91.62191772460938 353.3295593261719Q113.62030029296875 403.32794189453125 177.1170654296875 448.65911865234375Q240.61383056640625 493.99029541015625 363.110595703125 543.6526489257812Q485.60736083984375 593.3150024414062 685.9385375976562 656.9708862304688Z" fill="#F6EEE1"/><path transform="translate(406.830,0) scale(0.109835,-0.109835)" d="M481.389404296875 1047.3441162109375Q557.7496948242188 1047.3441162109375 617.0970458984375 1033.8473510742188Q676.4443969726562 1020.3505859375 738.4573364257812 993.3570556640625L774.8079223632812 716.6817626953125H743.4735107421875L596.415283203125 989.012939453125L681.103515625 900.3505859375Q626.4346923828125 953.6688232421875 578.5938110351562 975.4967651367188Q530.7529296875 997.32470703125 470.10028076171875 997.32470703125Q382.765869140625 997.32470703125 336.43792724609375 961.6720581054688Q290.1099853515625 926.0194091796875 290.1099853515625 856.3732299804688Q290.1099853515625 818.0485229492188 306.9460144042969 786.0582275390625Q323.78204345703125 754.0679321289062 375.7868957519531 722.9120483398438Q427.791748046875 691.7561645507812 535.1326293945312 654.4346923828125Q614.8046875 627.1099853515625 668.4783630371094 592.6116027832031Q722.1520385742188 558.1132202148438 753.6585083007812 516.7739562988281Q785.1649780273438 475.4346923828125 798.6698303222656 426.590576171875Q812.1746826171875 377.7464599609375 812.1746826171875 320.73028564453125Q812.1746826171875 219.37646484375 756.4977722167969 141.69308471679688Q700.8208618164062 64.00970458984375 606.1261596679688 20.332794189453125Q511.43145751953125 -23.3441162109375 392.0452880859375 -23.3441162109375Q303.67205810546875 -23.3441162109375 237.32147216796875 -8.3441162109375Q170.97088623046875 6.6558837890625 117.311767578125 34.31500244140625L61.6494140625 352.32470703125H97.65264892578125L276.02587890625 28.99676513671875L220.34088134765625 84.337646484375Q247.3441162109375 65.337646484375 277.3489685058594 52.837646484375Q307.35382080078125 40.337646484375 339.52587890625 34.004852294921875Q371.69793701171875 27.67205810546875 403.701171875 27.67205810546875Q489.37322998046875 27.67205810546875 552.1898498535156 73.66073608398438Q615.0064697265625 119.6494140625 615.0064697265625 213.29559326171875Q615.0064697265625 249.28912353515625 602.8392639160156 279.1154479980469Q590.6720581054688 308.9417724609375 562.337646484375 335.2680969238281Q534.0032348632812 361.59442138671875 485.5016174316406 386.2535400390625Q437 410.91265869140625 363.3311767578125 435.23736572265625Q265.662353515625 468.22442626953125 206.6494140625 511.3851623535156Q147.636474609375 554.5458984375 121.45794677734375 610.883544921875Q95.2794189453125 667.22119140625 95.2794189453125 738.57177734375Q95.2794189453125 834.9288330078125 146.9547119140625 903.9530944824219Q198.6300048828125 972.9773559570312 286.1542663574219 1010.1607360839844Q373.67852783203125 1047.3441162109375 481.389404296875 1047.3441162109375Z" fill="#F6EEE1"/></g></g><g transform="translate(980.71,440.00)"><g transform="translate(0,125.266)"><path transform="translate(0.000,0) scale(0.087599,-0.087599)" d="M678.5026245117188 772.012939453125Q822.142333984375 772.012939453125 900.1148376464844 848.6704406738281Q978.0873413085938 925.3279418945312 978.0873413085938 1073.9773559570312Q978.0873413085938 1166.9805908203125 944.6018981933594 1231.1397094726562Q911.116455078125 1295.298828125 837.8240966796875 1328.62353515625Q764.53173828125 1361.9482421875 644.609375 1361.9482421875H293.99676513671875L337.8046875 1430H745.712890625Q946.7161254882812 1430 1063.550537109375 1385.1672058105469Q1180.3849487304688 1340.3344116210938 1230.5521545410156 1263.1704406738281Q1280.7193603515625 1186.0064697265625 1280.7193603515625 1087.3473510742188Q1280.7193603515625 996.6720581054688 1230.2145080566406 919.6688232421875Q1179.7096557617188 842.6655883789062 1079.8671569824219 794.1672058105469Q980.024658203125 745.6688232421875 832.01171875 739.0064697265625V742.3408813476562Q932.7064208984375 739.6688232421875 998.2306823730469 713.3150024414062Q1063.7549438476562 686.961181640625 1106.5990600585938 636.4385375976562Q1149.4431762695312 585.9158935546875 1181.0958251953125 507.9029541015625L1307.3299560546875 215.65911865234375Q1340.63525390625 139.688232421875 1367.9583435058594 103.363525390625Q1395.2814331054688 67.038818359375 1430.7814331054688 56.70440673828125Q1466.2814331054688 46.3699951171875 1522.9502563476562 46.3699951171875V0Q1380.492919921875 -10.67529296875 1290.9249877929688 -9.34088134765625Q1201.3570556640625 -8.0064697265625 1148.1639709472656 10.66558837890625Q1094.9708862304688 29.337646484375 1063.3052978515625 69.51132202148438Q1031.6397094726562 109.68499755859375 1003.987060546875 175.3570556640625L853.4088134765625 536.6817626953125Q823.7626342773438 607.6688232421875 796.7691040039062 643.3230895996094Q769.7755737304688 678.9773559570312 739.1099853515625 691.4692687988281Q708.4443969726562 703.961181640625 666.1196899414062 703.961181640625H331.116455078125L286.3052978515625 772.012939453125ZM536.2684936523438 1430V78.69146728515625L706.5737915039062 32.00970458984375V0H58.97088623046875V32.00970458984375L229.27618408203125 78.69146728515625V1352.3085327148438L58.97088623046875 1397.6558837890625V1430Z" fill="#B5533A"/><path transform="translate(123.777,0) scale(0.087599,-0.087599)" d="M580.714111328125 32.36029052734375Q660.32470703125 32.36029052734375 712.1122131347656 82.67852783203125Q763.8997192382812 132.99676513671875 788.8722229003906 236.31338500976562Q813.8447265625 339.6300048828125 813.8447265625 497.62353515625Q813.8447265625 660.9644165039062 789.5394287109375 770.4676513671875Q765.234130859375 879.9708862304688 714.110595703125 935.6380920410156Q662.987060546875 991.3052978515625 582.701171875 991.3052978515625Q503.090576171875 991.3052978515625 451.47027587890625 940.987060546875Q399.8499755859375 890.6688232421875 374.71026611328125 787.5194091796875Q349.570556640625 684.3699951171875 349.570556640625 526.37646484375Q349.570556640625 363.701171875 373.8758544921875 253.69793701171875Q398.18115234375 143.6947021484375 449.3046875 88.02749633789062Q500.42822265625 32.36029052734375 580.714111328125 32.36029052734375ZM573.363525390625 -23.3441162109375Q427.3311767578125 -23.3441162109375 312.15264892578125 44.6558837890625Q196.97412109375 112.6558837890625 130.47250366210938 233.1558837890625Q63.97088623046875 353.6558837890625 63.97088623046875 510.65911865234375Q63.97088623046875 669 133.64456176757812 790.0032348632812Q203.3182373046875 911.0064697265625 322.50323486328125 979.17529296875Q441.688232421875 1047.3441162109375 590.0517578125 1047.3441162109375Q739.0841064453125 1047.3441162109375 853.9298400878906 979.5113220214844Q968.7755737304688 911.6785278320312 1034.2771911621094 791.3441162109375Q1099.77880859375 671.0097045898438 1099.77880859375 513.3408813476562Q1099.77880859375 355 1028.9379272460938 233.82955932617188Q958.0970458984375 112.65911865234375 838.7464599609375 44.657501220703125Q719.3958740234375 -23.3441162109375 573.363525390625 -23.3441162109375Z" fill="#B5533A"/><path transform="translate(219.611,0) scale(0.087599,-0.087599)" d="M420.54791259765625 326.70440673828125Q420.54791259765625 268.39910888671875 439.8677673339844 230.58895874023438Q459.1876220703125 192.77880859375 498.3257141113281 174.62615966796875Q537.4638061523438 156.4735107421875 599.0841064453125 156.4735107421875Q661.363525390625 156.4735107421875 718.6542663574219 175.1229248046875Q775.9450073242188 193.7723388671875 820.9417724609375 219.76263427734375L831.5911865234375 196.42498779296875Q754.9320678710938 127.05499267578125 700.1057434082031 84.03558349609375Q645.2794189453125 41.01617431640625 601.2826538085938 18.342498779296875Q557.285888671875 -4.3311767578125 515.6154479980469 -12.16558837890625Q473.94500732421875 -20 424.59765625 -20Q285.6170654296875 -20 218.61221313476562 56.65911865234375Q151.60736083984375 133.3182373046875 151.60736083984375 289.27294921875V928.9547119140625L-1.9805908203125 975.3344116210938V1012.3279418945312L428.8758544921875 1034.3408813476562L420.54791259765625 936.6461791992188ZM784.6429443359375 -31.68499755859375 774.9450073242188 159.65264892578125V929.9579467773438L624.701171875 975.3344116210938V1012.3279418945312L1055.8920288085938 1034.3408813476562L1043.8855590820312 935.6429443359375V128.75616455078125Q1052.8855590820312 124.08734130859375 1071.7151184082031 114.91690063476562Q1090.544677734375 105.7464599609375 1113.3742370605469 94.9088134765625Q1136.2037963867188 84.0711669921875 1158.2005615234375 73.2335205078125Q1180.1973266601562 62.3958740234375 1196.1973266601562 54.72381591796875V29.714111328125L797.6688232421875 -31.68499755859375Z" fill="#B5533A"/><path transform="translate(319.298,0) scale(0.087599,-0.087599)" d="M456.71087646484375 -465Q332.69146728515625 -465 247.18338012695312 -448.3392639160156Q161.67529296875 -431.67852783203125 109.17367553710938 -401.688232421875Q56.67205810546875 -371.69793701171875 33.0064697265625 -332.2092590332031Q9.34088134765625 -292.7205810546875 9.34088134765625 -247.3958740234375Q9.34088134765625 -210.39910888671875 30.680145263671875 -177.4088134765625Q52.0194091796875 -144.41851806640625 99.363525390625 -115.76425170898438Q146.7076416015625 -87.1099853515625 224.889404296875 -62.290130615234375Q303.0711669921875 -37.47027587890625 416.75616455078125 -17.14556884765625L500.8111572265625 -16.8111572265625L500.47674560546875 -31.467041015625Q385.47674560546875 -46.12615966796875 320.1439514160156 -72.941162109375Q254.8111572265625 -99.75616455078125 227.81277465820312 -136.40396118164062Q200.81439208984375 -173.0517578125 200.81439208984375 -217.37322998046875Q200.81439208984375 -278.012939453125 240.48159790039062 -320.8295593261719Q280.1488037109375 -363.64617919921875 352.4815979003906 -386.47088623046875Q424.81439208984375 -409.29559326171875 523.8111572265625 -409.29559326171875Q633.7852783203125 -409.29559326171875 705.265869140625 -384.8069152832031Q776.7464599609375 -360.3182373046875 811.7351379394531 -318.5048522949219Q846.7238159179688 -276.69146728515625 846.7238159179688 -224.71734619140625Q846.7238159179688 -184.064697265625 823.2173461914062 -156.74484252929688Q799.7108764648438 -129.42498779296875 749.7044067382812 -111.43630981445312Q699.6979370117188 -93.4476318359375 620.6963195800781 -82.12130737304688Q541.6947021484375 -70.79498291015625 431.038818359375 -63.12939453125Q335.02587890625 -54.46380615234375 270.17529296875 -35.29498291015625Q205.32470703125 -16.12615966796875 166.80853271484375 13.881927490234375Q128.2923583984375 43.8900146484375 111.4482421875 83.23898315429688Q94.6041259765625 122.58795166015625 94.6041259765625 171.94500732421875Q94.6041259765625 254.298828125 170.45956420898438 313.9886779785156Q246.31500244140625 373.67852783203125 385.0517578125 399.32470703125L398.04852294921875 373.987060546875Q328.72381591796875 368.987060546875 301.0566101074219 343.84088134765625Q273.389404296875 318.6947021484375 273.389404296875 288.701171875Q273.389404296875 262.71087646484375 285.3910217285156 244.21896362304688Q297.39263916015625 225.72705078125 330.7351379394531 213.06631469726562Q364.07763671875 200.40557861328125 427.0986633300781 190.74160766601562Q490.11968994140625 181.07763671875 592.1585083007812 172.4088134765625Q709.505859375 162.4088134765625 792.1779174804688 139.73837280273438Q874.8499755859375 117.06793212890625 927.3499755859375 81.39425659179688Q979.8499755859375 45.7205810546875 1004.3483581542969 -3.121917724609375Q1028.8467407226562 -51.96441650390625 1028.8467407226562 -114.97412109375Q1028.8467407226562 -206.98382568359375 967.3354187011719 -286.8230895996094Q905.8240966796875 -366.662353515625 779.2949829101562 -415.8311767578125Q652.765869140625 -465 456.71087646484375 -465ZM480.7464599609375 360.6558837890625Q361.038818359375 360.6558837890625 268.6866149902344 403.987060546875Q176.33441162109375 447.3182373046875 124.162353515625 524.3198547363281Q71.99029541015625 601.3214721679688 71.99029541015625 703Q71.99029541015625 804.0064697265625 124.8311767578125 881.67529296875Q177.67205810546875 959.3441162109375 269.52264404296875 1003.3441162109375Q361.37322998046875 1047.3441162109375 478.0711669921875 1047.3441162109375Q570.4314575195312 1047.3441162109375 646.1148376464844 1022.3457336425781Q721.7982177734375 997.3473510742188 776.4735107421875 951.6817626953125Q831.1488037109375 906.0161743164062 860.6520385742188 843.1801452636719Q890.1552734375 780.3441162109375 890.1552734375 703.6688232421875Q890.1552734375 603.3279418945312 837.6471862792969 525.9919128417969Q785.1390991210938 448.6558837890625 692.9557189941406 404.6558837890625Q600.7723388671875 360.6558837890625 480.7464599609375 360.6558837890625ZM505.0517578125 408.0323486328125Q580.3182373046875 416.0194091796875 613.4530944824219 492.7972106933594Q646.5879516601562 569.5750122070312 636.6041259765625 690.8803100585938Q627.285888671875 842.6008911132812 579.9967651367188 923.9466247558594Q532.7076416015625 1005.2923583984375 453.765869140625 999.9676513671875Q383.8240966796875 993.9773559570312 350.0236511230469 916.5339660644531Q316.22320556640625 839.090576171875 324.8758544921875 718.4508666992188Q333.52850341796875 569.3926391601562 381.1504211425781 486.0501403808594Q428.7723388671875 402.7076416015625 505.0517578125 408.0323486328125ZM615.4346923828125 1006.337646484375 566.4088134765625 1040.012939453125Q707.4379272460938 1031.0161743164062 794.2885131835938 1033.6849975585938Q881.1390991210938 1036.3538208007812 929.3160095214844 1045.0226440429688Q977.492919921875 1053.6914672851562 1002.0010070800781 1061.02587890625Q1026.5090942382812 1068.3602905273438 1043.1876220703125 1068.3602905273438Q1062.53173828125 1068.3602905273438 1075.70703125 1054.6898498535156Q1088.88232421875 1041.0194091796875 1088.88232421875 1007.6720581054688Q1088.88232421875 945.6688232421875 1056.7151184082031 906.4822082519531Q1024.5479125976562 867.2955932617188 984.53173828125 867.2955932617188Q957.8499755859375 867.2955932617188 930.3370361328125 886.6380920410156Q902.8240966796875 905.9805908203125 863.6455688476562 932.1575012207031Q824.467041015625 958.3344116210938 764.9557189941406 980.0064697265625Q705.4443969726562 1001.6785278320312 615.4346923828125 1006.337646484375Z" fill="#B5533A"/><path transform="translate(406.722,0) scale(0.087599,-0.087599)" d="M569.3829345703125 1047.3441162109375Q685.7529296875 1047.3441162109375 769.4379272460938 1000.6672058105469Q853.1229248046875 953.9902954101562 901.2966003417969 864.6413269042969Q949.4702758789062 775.2923583984375 958.8046875 646.9450073242188H288.77880859375V715.9805908203125H827.40234375L707.935302734375 670.9644165039062Q699.9417724609375 786.6558837890625 679.12353515625 855.9902954101562Q658.3052978515625 925.32470703125 623.4935302734375 956.6510314941406Q588.6817626953125 987.9773559570312 537.37646484375 987.9773559570312Q471.090576171875 987.9773559570312 423.9589538574219 948.6688232421875Q376.82733154296875 909.3602905273438 352.0139465332031 826.7157287597656Q327.2005615234375 744.0711669921875 327.2005615234375 614.0614624023438Q327.2005615234375 453.415283203125 367.1892395019531 354.0986633300781Q407.17791748046875 254.78204345703125 484.492919921875 209.29013061523438Q561.8079223632812 163.7982177734375 674.1196899414062 163.7982177734375Q728.7852783203125 163.7982177734375 778.7755737304688 177.4605712890625Q828.765869140625 191.1229248046875 874.4298400878906 220.11968994140625Q920.0938110351562 249.116455078125 959.1132202148438 295.11968994140625L979.4605712890625 279.103515625Q913.1132202148438 166.39263916015625 846.4330749511719 100.201171875Q779.7529296875 34.00970458984375 706.5711669921875 5.332794189453125Q633.389404296875 -23.3441162109375 546.0355834960938 -23.3441162109375Q406.337646484375 -23.3441162109375 297.6575012207031 36.4935302734375Q188.97735595703125 96.3311767578125 127.30691528320312 211.66720581054688Q65.636474609375 327.00323486328125 65.636474609375 492.662353515625Q65.636474609375 641.9967651367188 123.97573852539062 768.1672058105469Q182.31500244140625 894.337646484375 294.9983825683594 970.8408813476562Q407.6817626953125 1047.3441162109375 569.3829345703125 1047.3441162109375Z" fill="#B5533A"/></g></g><line x1="896.00" y1="642.00" x2="1024.00" y2="642.00" stroke="#B5533A" stroke-width="2" stroke-linecap="round"/><g transform="translate(571.68,676.00)"><g transform="translate(0,23.601)"><path transform="translate(0.000,0) scale(0.016113,-0.016113)" d="M81.57110595703125 0V179.02557373046875H275.4266357421875V1260.9744262695312H81.57110595703125V1440H693.0669555664062V1260.9744262695312H499.21142578125V179.02557373046875H693.0669555664062V0Z" fill="#D8C3A5"/><path transform="translate(19.087,0) scale(0.016113,-0.016113)" d="M116.57562255859375 0 196.57562255859375 1440H562.44091796875L930.84423828125 156.651611328125H892.1768188476562L1262.1994018554688 1440H1628.2550659179688L1708.2550659179688 0H1491.2317504882812L1423.1354370117188 1275.4447021484375H1426.1354370117188L1043.30322265625 0H782.9563598632812L398.69525146484375 1275.4447021484375H401.69525146484375L333.59893798828125 0Z" fill="#D8C3A5"/><path transform="translate(55.092,0) scale(0.016113,-0.016113)" d="M116.57562255859375 0 196.57562255859375 1440H562.44091796875L930.84423828125 156.651611328125H892.1768188476562L1262.1994018554688 1440H1628.2550659179688L1708.2550659179688 0H1491.2317504882812L1423.1354370117188 1275.4447021484375H1426.1354370117188L1043.30322265625 0H782.9563598632812L398.69525146484375 1275.4447021484375H401.69525146484375L333.59893798828125 0Z" fill="#D8C3A5"/><path transform="translate(91.097,0) scale(0.016113,-0.016113)" d="M787.4832118818609 -24.761474609375Q570.3348388671875 -24.761474609375 412.2167053222656 65.738525390625Q254.09857177734375 156.238525390625 168.74191284179688 323.43897661976376Q83.38525390625 490.6394278489025 83.38525390625 719.9142980972425Q83.38525390625 950.1903686523438 168.74953176264177 1116.875366982783Q254.11380961903353 1283.560365313222 412.21451357791295 1374.1609199612985Q570.3152175367924 1464.761474609375 787.5142677039431 1464.761474609375Q1004.7133178710938 1464.761474609375 1162.7585820874733 1374.1688490016486Q1320.8038463038527 1283.5762233939222 1406.1381902417702 1116.9058127454532Q1491.4725341796875 950.2354020969842 1491.4725341796875 720Q1491.4725341796875 490.6902705407693 1406.1158752441406 323.4643979656971Q1320.7592163085938 156.238525390625 1162.695400602564 65.738525390625Q1004.6315848965344 -24.761474609375 787.4832118818609 -24.761474609375ZM787.367902144645 161.6929931640625Q931.7682495117188 161.6929931640625 1035.9872131347656 229.243408203125Q1140.2061767578125 296.7938232421875 1196.3517761230469 422.22723388671875Q1252.4973754882812 547.66064453125 1252.4973754882812 720.0290480777418Q1252.4973754882812 893.33935546875 1196.3517761230469 1018.2727661132812Q1140.2061767578125 1143.2061767578125 1035.9872131347656 1210.756591796875Q931.7682495117188 1278.3070068359375 787.367902144645 1278.3070068359375Q643.899169921875 1278.3070068359375 539.3705749511719 1210.756591796875Q434.84197998046875 1143.2061767578125 378.6011962890625 1018.2727661132812Q322.36041259765625 893.33935546875 322.36041259765625 720.0290480777418Q322.36041259765625 547.66064453125 378.6011962890625 422.22723388671875Q434.84197998046875 296.7938232421875 539.3705749511719 229.243408203125Q643.899169921875 161.6929931640625 787.367902144645 161.6929931640625Z" fill="#D8C3A5"/><path transform="translate(123.074,0) scale(0.016113,-0.016113)" d="M156.57562255859375 0V1440H735.6538696289062Q958.8374633789062 1440 1085.0759887695312 1352.4529724121094Q1211.3145141601562 1264.9059448242188 1211.3145141601562 1096.5733642578125Q1211.3145141601562 991.7178344726562 1166.3145141601562 924.408203125Q1121.3145141601562 857.0985717773438 1051.6711730957031 821.6455993652344Q982.02783203125 786.192626953125 907.07373046875 776.8118896484375L910.07373046875 780.8118896484375Q1067.5026245117188 755.192626953125 1165.4808044433594 658.8107604980469Q1263.458984375 562.4288940429688 1263.458984375 390.0458984375Q1263.458984375 244.95184326171875 1195.6264038085938 159.3807373046875Q1127.7938232421875 73.80963134765625 1015.7949523925781 36.904815673828125Q903.7960815429688 0 770.8923950195312 0ZM380.36041259765625 179.220458984375H752.2362670898438Q863.5252075195312 179.220458984375 925.7178344726562 215.62753295898438Q987.9104614257812 252.03460693359375 1012.6019592285156 309.513916015625Q1037.29345703125 366.99322509765625 1037.29345703125 430.42437744140625Q1037.29345703125 516.192626953125 998.0045166015625 573.6719360351562Q958.715576171875 631.1512451171875 883.6640319824219 660.3427429199219Q808.6124877929688 689.5342407226562 700.2294921875 689.5342407226562H380.36041259765625ZM380.36041259765625 864.5665893554688H722.0850219726562Q832.8510131835938 864.5665893554688 907.4277648925781 910.6881103515625Q982.0045166015625 956.8096313476562 982.0045166015625 1064.1971435546875Q982.0045166015625 1151.0112915039062 923.97705078125 1205.8954162597656Q865.9495849609375 1260.779541015625 730.1813354492188 1260.779541015625H380.36041259765625Z" fill="#D8C3A5"/><path transform="translate(151.329,0) scale(0.016113,-0.016113)" d="M81.57110595703125 0V179.02557373046875H275.4266357421875V1260.9744262695312H81.57110595703125V1440H693.0669555664062V1260.9744262695312H499.21142578125V179.02557373046875H693.0669555664062V0Z" fill="#D8C3A5"/><path transform="translate(170.416,0) scale(0.016113,-0.016113)" d="M156.57562255859375 0V1440H380.36041259765625V186.4544677734375H1091.4130859375V0Z" fill="#D8C3A5"/><path transform="translate(195.384,0) scale(0.016113,-0.016113)" d="M81.57110595703125 0V179.02557373046875H275.4266357421875V1260.9744262695312H81.57110595703125V1440H693.0669555664062V1260.9744262695312H499.21142578125V179.02557373046875H693.0669555664062V0Z" fill="#D8C3A5"/><path transform="translate(214.471,0) scale(0.016113,-0.016113)" d="M156.57562255859375 0V1440H1128.4198608398438V1253.5455322265625H380.36041259765625V854.2776489257812H1028.6124877929688V671.6305541992188H380.36041259765625V186.4544677734375H1142.4198608398438V0Z" fill="#D8C3A5"/><path transform="translate(240.615,0) scale(0.016113,-0.016113)" d="M156.57562255859375 0V1440H749.7411499023438Q1254.5003662109375 1440 1254.5003662109375 1048.2453002929688Q1254.5003662109375 654.2520751953125 735.3190307617188 654.2520751953125H380.36041259765625V0ZM1009.5711059570312 0 616.7200927734375 715.6741943359375H867.55078125L1262.1151123046875 0ZM380.36041259765625 833.4725341796875H743.2686157226562Q880.4343192185028 833.4725341796875 954.4316066307358 888.167167894768Q1028.4288940429688 942.8618016098485 1028.4288940429688 1045.81640625Q1028.4288940429688 1149.6233901325454 954.0436401367188 1205.2014655740852Q879.6583862304688 1260.779541015625 741.5552978515625 1260.779541015625H380.36041259765625Z" fill="#D8C3A5"/><path transform="translate(283.220,0) scale(0.016113,-0.016113)" d="M156.57562255859375 0V1440H630.4108276367188Q886.1241455078125 1440 1049.2904357910156 1354.4759216308594Q1212.4567260742188 1268.9518432617188 1290.5519104003906 1109.261474609375Q1368.6470947265625 949.5711059570312 1368.6470947265625 728.0963134765625Q1368.6470947265625 483.1422119140625 1279.2170715332031 321.4277648925781Q1189.7870483398438 159.71331787109375 1022.1677856445312 79.85665893554688Q854.5485229492188 0 619.8856201171875 0ZM380.36041259765625 186.4544677734375H596.93603515625Q1129.6719360351562 186.4544677734375 1129.6719360351562 720Q1129.6719360351562 884.9104614257812 1075.9322814941406 1004.5583190917969Q1022.192626953125 1124.2061767578125 907.4025573730469 1188.8758544921875Q792.6124877929688 1253.5455322265625 607.4612426757812 1253.5455322265625H380.36041259765625Z" fill="#D8C3A5"/><path transform="translate(313.263,0) scale(0.016113,-0.016113)" d="M156.57562255859375 0V1440H1128.4198608398438V1253.5455322265625H380.36041259765625V854.2776489257812H1028.6124877929688V671.6305541992188H380.36041259765625V186.4544677734375H1142.4198608398438V0Z" fill="#D8C3A5"/><path transform="translate(353.902,0) scale(0.016113,-0.016113)" d="M156.57562255859375 0V1440H380.36041259765625V186.4544677734375H1091.4130859375V0Z" fill="#D8C3A5"/><path transform="translate(378.870,0) scale(0.016113,-0.016113)" d="M704.6102294921875 -24.761474609375Q527.4725341796875 -24.761474609375 399.2373962402344 39.8807373046875Q271.00225830078125 104.52294921875 201.408203125 224.25921630859375Q131.81414794921875 343.9954833984375 131.81414794921875 508.468017578125V1440H355.59893798828125V522.5643310546875Q355.59893798828125 354.27313232421875 448.62640380859375 257.9830627441406Q541.6538696289062 161.6929931640625 704.6102294921875 161.6929931640625Q867.5665893554688 161.6929931640625 960.5940551757812 258.64935302734375Q1053.6215209960938 355.605712890625 1053.6215209960938 527.8946533203125V1440H1277.4063110351562V508.468017578125Q1277.4063110351562 343.9954833984375 1208.2170715332031 224.25921630859375Q1139.02783203125 104.52294921875 1010.4830627441406 39.8807373046875Q881.9382934570312 -24.761474609375 704.6102294921875 -24.761474609375Z" fill="#D8C3A5"/><path transform="translate(408.173,0) scale(0.016113,-0.016113)" d="M42.09857177734375 0 556.192626953125 746.761474609375 62.00677490234375 1440H331.21142578125L696.0323486328125 894.8856201171875L1054.6674194335938 1440H1314.4431762695312L827.6817016601562 740.6674194335938L1354.0579223632812 0H1074.9473266601562L688.8419799804688 575.302490234375L307.30322265625 0Z" fill="#D8C3A5"/><path transform="translate(437.233,0) scale(0.016113,-0.016113)" d="M156.57562255859375 0V1440H1128.4198608398438V1253.5455322265625H380.36041259765625V854.2776489257812H1028.6124877929688V671.6305541992188H380.36041259765625V186.4544677734375H1142.4198608398438V0Z" fill="#D8C3A5"/><path transform="translate(477.872,0) scale(0.016113,-0.016113)" d="M144.39202880859375 534.486083984375V725.513916015625H837.6651611328125V534.486083984375Z" fill="#D8C3A5"/><path transform="translate(514.789,0) scale(0.016113,-0.016113)" d="M116.57562255859375 0 196.57562255859375 1440H562.44091796875L930.84423828125 156.651611328125H892.1768188476562L1262.1994018554688 1440H1628.2550659179688L1708.2550659179688 0H1491.2317504882812L1423.1354370117188 1275.4447021484375H1426.1354370117188L1043.30322265625 0H782.9563598632812L398.69525146484375 1275.4447021484375H401.69525146484375L333.59893798828125 0Z" fill="#D8C3A5"/><path transform="translate(550.794,0) scale(0.016113,-0.016113)" d="M16.192626953125 0 605.15576171875 1440H857.495849609375L1444.458984375 0H1204.8668212890625L730.945068359375 1239.6260375976562L255.7847900390625 0ZM344.945068359375 445.348388671875V627.2340087890625H1114.945068359375V445.348388671875Z" fill="#D8C3A5"/><path transform="translate(580.934,0) scale(0.016113,-0.016113)" d="M156.57562255859375 0V1440H749.7411499023438Q1254.5003662109375 1440 1254.5003662109375 1048.2453002929688Q1254.5003662109375 654.2520751953125 735.3190307617188 654.2520751953125H380.36041259765625V0ZM1009.5711059570312 0 616.7200927734375 715.6741943359375H867.55078125L1262.1151123046875 0ZM380.36041259765625 833.4725341796875H743.2686157226562Q880.4343192185028 833.4725341796875 954.4316066307358 888.167167894768Q1028.4288940429688 942.8618016098485 1028.4288940429688 1045.81640625Q1028.4288940429688 1149.6233901325454 954.0436401367188 1205.2014655740852Q879.6583862304688 1260.779541015625 741.5552978515625 1260.779541015625H380.36041259765625Z" fill="#D8C3A5"/><path transform="translate(609.044,0) scale(0.016113,-0.016113)" d="M156.57562255859375 0V1440H749.7411499023438Q1254.5003662109375 1440 1254.5003662109375 1048.2453002929688Q1254.5003662109375 654.2520751953125 735.3190307617188 654.2520751953125H380.36041259765625V0ZM1009.5711059570312 0 616.7200927734375 715.6741943359375H867.55078125L1262.1151123046875 0ZM380.36041259765625 833.4725341796875H743.2686157226562Q880.4343192185028 833.4725341796875 954.4316066307358 888.167167894768Q1028.4288940429688 942.8618016098485 1028.4288940429688 1045.81640625Q1028.4288940429688 1149.6233901325454 954.0436401367188 1205.2014655740852Q879.6583862304688 1260.779541015625 741.5552978515625 1260.779541015625H380.36041259765625Z" fill="#D8C3A5"/><path transform="translate(637.154,0) scale(0.016113,-0.016113)" d="M16.192626953125 0 605.15576171875 1440H857.495849609375L1444.458984375 0H1204.8668212890625L730.945068359375 1239.6260375976562L255.7847900390625 0ZM344.945068359375 445.348388671875V627.2340087890625H1114.945068359375V445.348388671875Z" fill="#D8C3A5"/><path transform="translate(667.294,0) scale(0.016113,-0.016113)" d="M156.57562255859375 0V1440H380.36041259765625V798.8419799804688L1044.238525390625 1440H1335.4981079101562L790.1610107421875 912.238525390625L1356.2550659179688 0H1091.4243774414062L626.4612426757812 753.5869140625L380.36041259765625 515.6787109375V0Z" fill="#D8C3A5"/><path transform="translate(696.403,0) scale(0.016113,-0.016113)" d="M156.57562255859375 0V1440H1128.4198608398438V1253.5455322265625H380.36041259765625V854.2776489257812H1028.6124877929688V671.6305541992188H380.36041259765625V186.4544677734375H1142.4198608398438V0Z" fill="#D8C3A5"/><path transform="translate(722.548,0) scale(0.016113,-0.016113)" d="M771.9518432617188 -24.761474609375Q564.3348388671875 -24.761474609375 409.12152099609375 70.28668212890625Q253.908203125 165.3348388671875 168.33709716796875 334.5492858886719Q82.7659912109375 503.76373291015625 82.7659912109375 725.6674194335938Q82.7659912109375 942.7133178710938 165.50338745117188 1109.0940551757812Q248.24078369140625 1275.4747924804688 402.2396545410156 1370.1181335449219Q556.238525390625 1464.761474609375 770.3325805664062 1464.761474609375Q995.6124877929688 1464.761474609375 1160.1343078613281 1349.7637329101562Q1324.6561279296875 1234.7659912109375 1378.036865234375 1006.0526733398438L1145.15576171875 951.5342407226562Q1106.724609375 1118.302490234375 1006.9826965332031 1198.3047485351562Q907.2407836914062 1278.3070068359375 767.9036865234375 1278.3070068359375Q626.5643310546875 1278.3070068359375 526.8694458007812 1207.1132507324219Q427.174560546875 1135.9194946289062 374.4578552246094 1010.486083984375Q321.74114990234375 885.0526733398438 321.74114990234375 720.8096313476562Q321.74114990234375 554.1376953125 375.67230224609375 427.7994689941406Q429.60345458984375 301.46124267578125 528.0838928222656 231.48193359375Q626.5643310546875 161.50262451171875 761.4266357421875 161.50262451171875Q907.7659912109375 161.50262451171875 1012.24755859375 248.60232543945312Q1116.7291259765625 335.7020263671875 1147.9194946289062 491.94732666015625L1386.990966796875 433.9495849609375Q1328.1813354492188 210.807373046875 1163.2306213378906 93.02294921875Q998.2799072265625 -24.761474609375 771.9518432617188 -24.761474609375Z" fill="#D8C3A5"/><path transform="translate(752.510,0) scale(0.016113,-0.016113)" d="M156.57562255859375 0V1440H380.36041259765625V829.8028564453125H1116.8645629882812V1440H1340.6493530273438V0H1116.8645629882812V643.348388671875H380.36041259765625V0Z" fill="#D8C3A5"/></g></g></svg>
