<svg xmlns="http://www.w3.org/2000/svg" viewBox="0 0 1920 1080" width="1920" height="1080" role="img" aria-label="Atlas Rouge logo concept"><rect width="1920" height="1080" fill="#F6EEE1"/><path d="M 687.00 334.76 C 796.20 291.08, 896.04 275.48, 960.00 280.16 C 1050.48 286.40, 1134.72 316.04, 1233.00 334.76" fill="none" stroke="#D8C3A5" stroke-width="1.25" stroke-linecap="round"/><path d="M 740.04 356.60 C 855.48 328.52, 927.24 322.28, 1002.12 330.08 C 1070.76 337.10, 1128.48 352.70, 1183.08 362.84" fill="none" stroke="#D8C3A5" stroke-width="0.94" stroke-linecap="round" opacity="0.70"/><path d="M 885.12 383.12 C 930.36 372.98, 992.76 372.98, 1034.88 383.12" fill="none" stroke="#B5533A" stroke-width="2.18" stroke-linecap="round"/><g transform="translate(199.61,456.00)"><g transform="translate(0,140.075)"><path transform="translate(0.000,0) scale(0.093011,-0.093011)" d="M333.9676513671875 516.5426635742188V586.5750122070312H1039.6300048828125V516.5426635742188ZM1403.2135009765625 78.688232421875 1559.2135009765625 32.00970458984375V0H899.8770751953125V32.00970458984375L1076.5264892578125 76.688232421875L595.2535400390625 1177.92236328125L639.3150024414062 1193.97412109375L208.02587890625 79.0064697265625L392.67529296875 31.34088134765625V0H-22.3441162109375V31.34088134765625L130.6558837890625 82.0064697265625L667.9547119140625 1443.311767578125H798.2523193359375Z" fill="#172033"/><path transform="translate(154.212,0) scale(0.093011,-0.093011)" d="M594.2567749023438 1396.6558837890625H901.2490844726562V78.69146728515625L1071.5543823242188 32.00970458984375V0H423.95147705078125V32.00970458984375L594.2567749023438 78.69146728515625ZM1330.142333984375 1356.62353515625H165.363525390625L285.7205810546875 1381.9773559570312L67.99029541015625 962.2503051757812L36.31500244140625 969.2503051757812L100.987060546875 1506.0097045898438H119.6558837890625L298.7593994140625 1408.6494140625L189.363525390625 1430H1306.142333984375L1196.7464599609375 1408.6494140625L1375.8499755859375 1506.0097045898438H1394.518798828125L1459.1908569335938 969.2503051757812L1427.5155639648438 962.2503051757812L1209.7852783203125 1381.9773559570312Z" fill="#172033"/><path transform="translate(306.378,0) scale(0.093011,-0.093011)" d="M1169.2037963867188 -63.69793701171875H1153.8467407226562L1015.47998046875 0H349.467041015625V73.37646484375H1143.8014526367188L986.1229248046875 41.35382080078125L1251.5414428710938 435.77557373046875L1283.2296752929688 427.43792724609375ZM534.9308471679688 1354.9838256835938V0H60.97735595703125V32.00970458984375L227.93853759765625 76.01617431640625V1354.9838256835938L60.97735595703125 1397.6558837890625V1430H701.8920288085938V1397.6558837890625Z" fill="#172033"/><path transform="translate(440.314,0) scale(0.093011,-0.093011)" d="M333.9676513671875 516.5426635742188V586.5750122070312H1039.6300048828125V516.5426635742188ZM1403.2135009765625 78.688232421875 1559.2135009765625 32.00970458984375V0H899.8770751953125V32.00970458984375L1076.5264892578125 76.688232421875L595.2535400390625 1177.92236328125L639.3150024414062 1193.97412109375L208.02587890625 79.0064697265625L392.67529296875 31.34088134765625V0H-22.3441162109375V31.34088134765625L130.6558837890625 82.0064697265625L667.9547119140625 1443.311767578125H798.2523193359375Z" fill="#172033"/><path transform="translate(594.526,0) scale(0.093011,-0.093011)" d="M965.4832153320312 1366.3441162109375 830.1229248046875 1390.3279418945312 950.8370361328125 1492.6947021484375H969.5090942382812L1039.8790893554688 1011.9676513671875L1011.8661499023438 1006.2955932617188L805.4476318359375 1341.9967651367188L881.518798828125 1249.2535400390625Q807.4767456054688 1320.9773559570312 727.4735107421875 1356.3101501464844Q647.4702758789062 1391.6429443359375 562.4767456054688 1391.6429443359375Q436.82733154296875 1391.6429443359375 380.5123291015625 1333.82470703125Q324.19732666015625 1276.0064697265625 324.19732666015625 1183.3732299804688Q324.19732666015625 1118.389404296875 354.0301208496094 1074.4007263183594Q383.8629150390625 1030.4120483398438 435.3629150390625 1000.2513122558594Q486.8629150390625 970.090576171875 552.6973266601562 946.7593994140625Q618.53173828125 923.42822265625 690.5349731445312 898.7626342773438Q762.5382080078125 874.0970458984375 833.8758544921875 841.7626342773438Q905.2135009765625 809.42822265625 964.0511474609375 759.7593994140625Q1022.8887939453125 710.090576171875 1058.3920288085938 635.0873413085938Q1093.895263671875 560.0841064453125 1093.895263671875 449.08087158203125Q1093.895263671875 306.04205322265625 1016.8710021972656 199.52264404296875Q939.8467407226562 93.00323486328125 811.3063049316406 34.49676513671875Q682.765869140625 -24.00970458984375 526.3829345703125 -24.00970458984375Q421.038818359375 -24.00970458984375 335.68499755859375 -10.512939453125Q250.3311767578125 2.98382568359375 158.3052978515625 38.65264892578125L75.6494140625 436.04205322265625H106.99029541015625L377.04205322265625 21.337646484375L205.6494140625 135.3699951171875Q293.66558837890625 85.701171875 364.6801452636719 58.8699951171875Q435.6947021484375 32.038818359375 514.038818359375 32.038818359375Q634.7108764648438 32.038818359375 714.6963195800781 67.36676025390625Q794.6817626953125 102.6947021484375 834.6655883789062 167.00970458984375Q874.6494140625 231.32470703125 874.6494140625 319.285888671875Q874.6494140625 402.2664794921875 838.6510314941406 456.5863342285156Q802.6526489257812 510.90618896484375 743.3198547363281 546.7308959960938Q683.987060546875 582.5556030273438 612.8198547363281 608.5507507324219Q541.6526489257812 634.5458984375 470.6494140625 660.8770751953125Q399.64617919921875 687.208251953125 335.97412109375 718.0442810058594Q272.30206298828125 748.8803100585938 222.96441650390625 792.0539855957031Q173.62677001953125 835.2276611328125 145.12353515625 897.0733947753906Q116.62030029296875 958.9191284179688 116.62030029296875 1046.6041259765625Q116.62030029296875 1171.9579467773438 178.30691528320312 1263.1413269042969Q239.9935302734375 1354.32470703125 352.6963195800781 1404.1672058105469Q465.39910888671875 1454.0097045898438 617.77880859375 1454.0097045898438Q716.4573364257812 1454.0097045898438 797.7966003417969 1433.0097045898438Q879.1358642578125 1412.0097045898438 965.4832153320312 1366.3441162109375Z" fill="#172033"/></g></g><g transform="translate(947.89,456.00)"><g transform="translate(0,140.036)"><path transform="translate(0.000,0) scale(0.093626,-0.093626)" d="M678.5026245117188 772.012939453125Q822.142333984375 772.012939453125 900.1148376464844 848.6704406738281Q978.0873413085938 925.3279418945312 978.0873413085938 1073.9773559570312Q978.0873413085938 1166.9805908203125 944.6018981933594 1231.1397094726562Q911.116455078125 1295.298828125 837.8240966796875 1328.62353515625Q764.53173828125 1361.9482421875 644.609375 1361.9482421875H293.99676513671875L337.8046875 1430H745.712890625Q946.7161254882812 1430 1063.550537109375 1385.1672058105469Q1180.3849487304688 1340.3344116210938 1230.5521545410156 1263.1704406738281Q1280.7193603515625 1186.0064697265625 1280.7193603515625 1087.3473510742188Q1280.7193603515625 996.6720581054688 1230.2145080566406 919.6688232421875Q1179.7096557617188 842.6655883789062 1079.8671569824219 794.1672058105469Q980.024658203125 745.6688232421875 832.01171875 739.0064697265625V742.3408813476562Q932.7064208984375 739.6688232421875 998.2306823730469 713.3150024414062Q1063.7549438476562 686.961181640625 1106.5990600585938 636.4385375976562Q1149.4431762695312 585.9158935546875 1181.0958251953125 507.9029541015625L1307.3299560546875 215.65911865234375Q1340.63525390625 139.688232421875 1367.9583435058594 103.363525390625Q1395.2814331054688 67.038818359375 1430.7814331054688 56.70440673828125Q1466.2814331054688 46.3699951171875 1522.9502563476562 46.3699951171875V0Q1380.492919921875 -10.67529296875 1290.9249877929688 -9.34088134765625Q1201.3570556640625 -8.0064697265625 1148.1639709472656 10.66558837890625Q1094.9708862304688 29.337646484375 1063.3052978515625 69.51132202148438Q1031.6397094726562 109.68499755859375 1003.987060546875 175.3570556640625L853.4088134765625 536.6817626953125Q823.7626342773438 607.6688232421875 796.7691040039062 643.3230895996094Q769.7755737304688 678.9773559570312 739.1099853515625 691.4692687988281Q708.4443969726562 703.961181640625 666.1196899414062 703.961181640625H331.116455078125L286.3052978515625 772.012939453125ZM536.2684936523438 1430V78.69146728515625L706.5737915039062 32.00970458984375V0H58.97088623046875V32.00970458984375L229.27618408203125 78.69146728515625V1352.3085327148438L58.97088623046875 1397.6558837890625V1430Z" fill="#B5533A"/><path transform="translate(151.954,0) scale(0.093626,-0.093626)" d="M823.4120483398438 1453.3441162109375Q980.0873413085938 1453.3441162109375 1111.7626342773438 1400.512939453125Q1243.4379272460938 1347.6817626953125 1340.2771911621094 1250.6849975585938Q1437.116455078125 1153.688232421875 1490.4541015625 1020.3570556640625Q1543.791748046875 887.02587890625 1543.791748046875 726.02587890625Q1543.791748046875 561.6849975585938 1489.116455078125 424.5113220214844Q1434.441162109375 287.337646484375 1334.9249877929688 186.83279418945312Q1235.4088134765625 86.32794189453125 1100.5549926757812 31.491912841796875Q965.701171875 -23.3441162109375 805.0097045898438 -23.3441162109375Q648.3344116210938 -23.3441162109375 516.3263244628906 29.487060546875Q384.3182373046875 82.3182373046875 287.14617919921875 179.31500244140625Q189.97412109375 276.311767578125 136.636474609375 409.9757385253906Q83.298828125 543.6397094726562 83.298828125 705.3052978515625Q83.298828125 868.9805908203125 137.97412109375 1006.1542663574219Q192.6494140625 1143.3279418945312 292.16558837890625 1243.5Q391.6817626953125 1343.6720581054688 527.0355834960938 1398.5080871582031Q662.389404296875 1453.3441162109375 823.4120483398438 1453.3441162109375ZM825.389404296875 37.69793701171875Q948.9676513671875 37.69793701171875 1039.9110412597656 107.66558837890625Q1130.8544311523438 177.63323974609375 1181.3269348144531 316.9417724609375Q1231.7994384765625 456.25030517578125 1231.7994384765625 663.9385375976562Q1231.7994384765625 897.9547119140625 1178.3350219726562 1060.6267700195312Q1124.87060546875 1223.298828125 1028.0911865234375 1308.1332397460938Q931.311767578125 1392.9676513671875 801.701171875 1392.9676513671875Q678.4573364257812 1392.9676513671875 587.0139465332031 1323.0Q495.570556640625 1253.0323486328125 445.0980529785156 1113.5582275390625Q394.62554931640625 974.0841064453125 394.62554931640625 766.0614624023438Q394.62554931640625 532.3796997070312 448.0899658203125 369.87322998046875Q501.55438232421875 207.36676025390625 598.3338012695312 122.5323486328125Q695.1132202148438 37.69793701171875 825.389404296875 37.69793701171875Z" fill="#B5533A"/><path transform="translate(317.391,0) scale(0.093626,-0.093626)" d="M1340.142333984375 573.37646484375V1354.3182373046875L1158.53173828125 1397.6558837890625V1430H1580.7949829101562V1397.6558837890625L1413.8338012695312 1354.3182373046875V557.0452880859375Q1413.8338012695312 365.34088134765625 1343.6536560058594 236.32955932617188Q1273.4735107421875 107.3182373046875 1140.7868957519531 41.987060546875Q1008.1002807617188 -23.3441162109375 821.07763671875 -23.3441162109375Q616.6914672851562 -23.3441162109375 476.6607360839844 43.82147216796875Q336.6300048828125 110.987060546875 264.6170654296875 245.49029541015625Q192.6041259765625 379.9935302734375 192.6041259765625 581.6720581054688V1354.9838256835938L25.6429443359375 1397.6558837890625V1430H666.5576171875V1397.6558837890625L499.596435546875 1354.9838256835938V567.0226440429688Q499.596435546875 417.7076416015625 546.4227600097656 320.8942565917969Q593.2490844726562 224.08087158203125 685.9001159667969 177.76101684570312Q778.5511474609375 131.441162109375 917.1908569335938 131.441162109375Q1053.1714477539062 131.441162109375 1147.3273315429688 177.2593994140625Q1241.4832153320312 223.07763671875 1290.8127746582031 320.56146240234375Q1340.142333984375 418.0452880859375 1340.142333984375 573.37646484375Z" fill="#B5533A"/><path transform="translate(481.142,0) scale(0.093626,-0.093626)" d="M1377.8338012695312 111.02264404296875H1498.492919921875V79.67205810546875Q1385.1229248046875 42.6688232421875 1280.2642517089844 19.998382568359375Q1175.4055786132812 -2.67205810546875 1080.5501403808594 -13.008087158203125Q985.6947021484375 -23.3441162109375 901 -23.3441162109375Q723.636474609375 -23.3441162109375 573.961181640625 23.82470703125Q424.285888671875 70.9935302734375 314.2875061035156 165.662353515625Q204.28912353515625 260.3311767578125 143.62838745117188 401.16558837890625Q82.9676513671875 542 82.9676513671875 728.6655883789062Q82.9676513671875 944.3344116210938 185.98220825195312 1107.337646484375Q288.99676513671875 1270.3408813476562 472.6930847167969 1361.8424987792969Q656.389404296875 1453.3441162109375 897.103515625 1453.3441162109375Q1007.3991088867188 1453.3441162109375 1096.0274963378906 1438.688232421875Q1184.6558837890625 1424.0323486328125 1262.6720581054688 1400.7044067382812L1140.6947021484375 1386.0097045898438L1273.415283203125 1492.6947021484375H1288.0841064453125L1386.4443969726562 975.2697143554688L1357.4314575195312 968.9255981445312L1111.0517578125 1364.285888671875L1263.6300048828125 1203.3473510742188Q1171.97412109375 1295.3570556640625 1074.3619079589844 1344.4951477050781Q976.7496948242188 1393.6332397460938 865.1488037109375 1393.6332397460938Q770.1649780273438 1393.6332397460938 686.0220336914062 1361.4708862304688Q601.8790893554688 1329.3085327148438 537.570556640625 1257.1526489257812Q473.26202392578125 1184.9967651367188 436.7781982421875 1065.3505859375Q400.29437255859375 945.7044067382812 400.29437255859375 770.0711669921875Q400.29437255859375 526.4443969726562 472.7652587890625 361.7674865722656Q545.2361450195312 197.090576171875 665.3564453125 113.40072631835938Q785.4767456054688 29.71087646484375 926.7593994140625 29.71087646484375Q970.72705078125 29.71087646484375 1011.5323486328125 36.371612548828125Q1052.337646484375 43.0323486328125 1087.6526489257812 56.521026611328125Q1122.9676513671875 70.00970458984375 1150.2955932617188 88.9935302734375L1087.8414916992188 16.3052978515625V558.3085327148438L890.9126586914062 605.6558837890625V639.6655883789062H1506.47998046875V605.6558837890625L1377.8338012695312 564.3085327148438Z" fill="#B5533A"/><path transform="translate(640.961,0) scale(0.093626,-0.093626)" d="M983.1843872070312 1052.37646484375 942.4961547851562 746 983.1843872070312 441.62353515625H957.8402709960938L837.4767456054688 702.6397094726562L411.648193359375 726.3052978515625V767.0291137695312L837.4767456054688 794.02587890625L957.8402709960938 1052.37646484375ZM1302.88232421875 1014.2632446289062 1273.2005615234375 1004.9255981445312 1045.1132202148438 1391.6591186523438 1203.7982177734375 1356.62353515625H349.467041015625V1430H1072.142333984375L1211.1617431640625 1495.7044067382812H1223.5090942382812ZM1076.1552734375 41.35382080078125 1334.8855590820312 435.77557373046875 1366.5737915039062 427.43792724609375 1252.5479125976562 -63.69793701171875H1237.1908569335938L1105.5123291015625 0H349.467041015625V73.37646484375H1227.1455688476562ZM60.97735595703125 0V32.00970458984375L227.93853759765625 76.01617431640625V1354.9838256835938L60.97735595703125 1397.6558837890625V1430H534.9308471679688V0Z" fill="#B5533A"/></g></g><line x1="902.00" y1="644.00" x2="1018.00" y2="644.00" stroke="#B5533A" stroke-width="2" stroke-linecap="round"/><g transform="translate(595.27,680.00)"><g transform="translate(0,21.634)"><path transform="translate(0.000,0) scale(0.014770,-0.014770)" d="M81.57110595703125 0V179.02557373046875H275.4266357421875V1260.9744262695312H81.57110595703125V1440H693.0669555664062V1260.9744262695312H499.21142578125V179.02557373046875H693.0669555664062V0Z" fill="#172033"/><path transform="translate(18.101,0) scale(0.014770,-0.014770)" d="M116.57562255859375 0 196.57562255859375 1440H562.44091796875L930.84423828125 156.651611328125H892.1768188476562L1262.1994018554688 1440H1628.2550659179688L1708.2550659179688 0H1491.2317504882812L1423.1354370117188 1275.4447021484375H1426.1354370117188L1043.30322265625 0H782.9563598632812L398.69525146484375 1275.4447021484375H401.69525146484375L333.59893798828125 0Z" fill="#172033"/><path transform="translate(51.711,0) scale(0.014770,-0.014770)" d="M116.57562255859375 0 196.57562255859375 1440H562.44091796875L930.84423828125 156.651611328125H892.1768188476562L1262.1994018554688 1440H1628.2550659179688L1708.2550659179688 0H1491.2317504882812L1423.1354370117188 1275.4447021484375H1426.1354370117188L1043.30322265625 0H782.9563598632812L398.69525146484375 1275.4447021484375H401.69525146484375L333.59893798828125 0Z" fill="#172033"/><path transform="translate(85.321,0) scale(0.014770,-0.014770)" d="M787.4832118818609 -24.761474609375Q570.3348388671875 -24.761474609375 412.2167053222656 65.738525390625Q254.09857177734375 156.238525390625 168.74191284179688 323.43897661976376Q83.38525390625 490.6394278489025 83.38525390625 719.9142980972425Q83.38525390625 950.1903686523438 168.74953176264177 1116.875366982783Q254.11380961903353 1283.560365313222 412.21451357791295 1374.1609199612985Q570.3152175367924 1464.761474609375 787.5142677039431 1464.761474609375Q1004.7133178710938 1464.761474609375 1162.7585820874733 1374.1688490016486Q1320.8038463038527 1283.5762233939222 1406.1381902417702 1116.9058127454532Q1491.4725341796875 950.2354020969842 1491.4725341796875 720Q1491.4725341796875 490.6902705407693 1406.1158752441406 323.4643979656971Q1320.7592163085938 156.238525390625 1162.695400602564 65.738525390625Q1004.6315848965344 -24.761474609375 787.4832118818609 -24.761474609375ZM787.367902144645 161.6929931640625Q931.7682495117188 161.6929931640625 1035.9872131347656 229.243408203125Q1140.2061767578125 296.7938232421875 1196.3517761230469 422.22723388671875Q1252.4973754882812 547.66064453125 1252.4973754882812 720.0290480777418Q1252.4973754882812 893.33935546875 1196.3517761230469 1018.2727661132812Q1140.2061767578125 1143.2061767578125 1035.9872131347656 1210.756591796875Q931.7682495117188 1278.3070068359375 787.367902144645 1278.3070068359375Q643.899169921875 1278.3070068359375 539.3705749511719 1210.756591796875Q434.84197998046875 1143.2061767578125 378.6011962890625 1018.2727661132812Q322.36041259765625 893.33935546875 322.36041259765625 720.0290480777418Q322.36041259765625 547.66064453125 378.6011962890625 422.22723388671875Q434.84197998046875 296.7938232421875 539.3705749511719 229.243408203125Q643.899169921875 161.6929931640625 787.367902144645 161.6929931640625Z" fill="#172033"/><path transform="translate(115.238,0) scale(0.014770,-0.014770)" d="M156.57562255859375 0V1440H735.6538696289062Q958.8374633789062 1440 1085.0759887695312 1352.4529724121094Q1211.3145141601562 1264.9059448242188 1211.3145141601562 1096.5733642578125Q1211.3145141601562 991.7178344726562 1166.3145141601562 924.408203125Q1121.3145141601562 857.0985717773438 1051.6711730957031 821.6455993652344Q982.02783203125 786.192626953125 907.07373046875 776.8118896484375L910.07373046875 780.8118896484375Q1067.5026245117188 755.192626953125 1165.4808044433594 658.8107604980469Q1263.458984375 562.4288940429688 1263.458984375 390.0458984375Q1263.458984375 244.95184326171875 1195.6264038085938 159.3807373046875Q1127.7938232421875 73.80963134765625 1015.7949523925781 36.904815673828125Q903.7960815429688 0 770.8923950195312 0ZM380.36041259765625 179.220458984375H752.2362670898438Q863.5252075195312 179.220458984375 925.7178344726562 215.62753295898438Q987.9104614257812 252.03460693359375 1012.6019592285156 309.513916015625Q1037.29345703125 366.99322509765625 1037.29345703125 430.42437744140625Q1037.29345703125 516.192626953125 998.0045166015625 573.6719360351562Q958.715576171875 631.1512451171875 883.6640319824219 660.3427429199219Q808.6124877929688 689.5342407226562 700.2294921875 689.5342407226562H380.36041259765625ZM380.36041259765625 864.5665893554688H722.0850219726562Q832.8510131835938 864.5665893554688 907.4277648925781 910.6881103515625Q982.0045166015625 956.8096313476562 982.0045166015625 1064.1971435546875Q982.0045166015625 1151.0112915039062 923.97705078125 1205.8954162597656Q865.9495849609375 1260.779541015625 730.1813354492188 1260.779541015625H380.36041259765625Z" fill="#172033"/><path transform="translate(141.743,0) scale(0.014770,-0.014770)" d="M81.57110595703125 0V179.02557373046875H275.4266357421875V1260.9744262695312H81.57110595703125V1440H693.0669555664062V1260.9744262695312H499.21142578125V179.02557373046875H693.0669555664062V0Z" fill="#172033"/><path transform="translate(159.844,0) scale(0.014770,-0.014770)" d="M156.57562255859375 0V1440H380.36041259765625V186.4544677734375H1091.4130859375V0Z" fill="#172033"/><path transform="translate(183.337,0) scale(0.014770,-0.014770)" d="M81.57110595703125 0V179.02557373046875H275.4266357421875V1260.9744262695312H81.57110595703125V1440H693.0669555664062V1260.9744262695312H499.21142578125V179.02557373046875H693.0669555664062V0Z" fill="#172033"/><path transform="translate(201.438,0) scale(0.014770,-0.014770)" d="M156.57562255859375 0V1440H1128.4198608398438V1253.5455322265625H380.36041259765625V854.2776489257812H1028.6124877929688V671.6305541992188H380.36041259765625V186.4544677734375H1142.4198608398438V0Z" fill="#172033"/><path transform="translate(226.009,0) scale(0.014770,-0.014770)" d="M156.57562255859375 0V1440H749.7411499023438Q1254.5003662109375 1440 1254.5003662109375 1048.2453002929688Q1254.5003662109375 654.2520751953125 735.3190307617188 654.2520751953125H380.36041259765625V0ZM1009.5711059570312 0 616.7200927734375 715.6741943359375H867.55078125L1262.1151123046875 0ZM380.36041259765625 833.4725341796875H743.2686157226562Q880.4343192185028 833.4725341796875 954.4316066307358 888.167167894768Q1028.4288940429688 942.8618016098485 1028.4288940429688 1045.81640625Q1028.4288940429688 1149.6233901325454 954.0436401367188 1205.2014655740852Q879.6583862304688 1260.779541015625 741.5552978515625 1260.779541015625H380.36041259765625Z" fill="#172033"/><path transform="translate(266.273,0) scale(0.014770,-0.014770)" d="M156.57562255859375 0V1440H630.4108276367188Q886.1241455078125 1440 1049.2904357910156 1354.4759216308594Q1212.4567260742188 1268.9518432617188 1290.5519104003906 1109.261474609375Q1368.6470947265625 949.5711059570312 1368.6470947265625 728.0963134765625Q1368.6470947265625 483.1422119140625 1279.2170715332031 321.4277648925781Q1189.7870483398438 159.71331787109375 1022.1677856445312 79.85665893554688Q854.5485229492188 0 619.8856201171875 0ZM380.36041259765625 186.4544677734375H596.93603515625Q1129.6719360351562 186.4544677734375 1129.6719360351562 720Q1129.6719360351562 884.9104614257812 1075.9322814941406 1004.5583190917969Q1022.192626953125 1124.2061767578125 907.4025573730469 1188.8758544921875Q792.6124877929688 1253.5455322265625 607.4612426757812 1253.5455322265625H380.36041259765625Z" fill="#172033"/><path transform="translate(294.418,0) scale(0.014770,-0.014770)" d="M156.57562255859375 0V1440H1128.4198608398438V1253.5455322265625H380.36041259765625V854.2776489257812H1028.6124877929688V671.6305541992188H380.36041259765625V186.4544677734375H1142.4198608398438V0Z" fill="#172033"/><path transform="translate(332.880,0) scale(0.014770,-0.014770)" d="M156.57562255859375 0V1440H380.36041259765625V186.4544677734375H1091.4130859375V0Z" fill="#172033"/><path transform="translate(356.372,0) scale(0.014770,-0.014770)" d="M704.6102294921875 -24.761474609375Q527.4725341796875 -24.761474609375 399.2373962402344 39.8807373046875Q271.00225830078125 104.52294921875 201.408203125 224.25921630859375Q131.81414794921875 343.9954833984375 131.81414794921875 508.468017578125V1440H355.59893798828125V522.5643310546875Q355.59893798828125 354.27313232421875 448.62640380859375 257.9830627441406Q541.6538696289062 161.6929931640625 704.6102294921875 161.6929931640625Q867.5665893554688 161.6929931640625 960.5940551757812 258.64935302734375Q1053.6215209960938 355.605712890625 1053.6215209960938 527.8946533203125V1440H1277.4063110351562V508.468017578125Q1277.4063110351562 343.9954833984375 1208.2170715332031 224.25921630859375Q1139.02783203125 104.52294921875 1010.4830627441406 39.8807373046875Q881.9382934570312 -24.761474609375 704.6102294921875 -24.761474609375Z" fill="#172033"/><path transform="translate(383.838,0) scale(0.014770,-0.014770)" d="M42.09857177734375 0 556.192626953125 746.761474609375 62.00677490234375 1440H331.21142578125L696.0323486328125 894.8856201171875L1054.6674194335938 1440H1314.4431762695312L827.6817016601562 740.6674194335938L1354.0579223632812 0H1074.9473266601562L688.8419799804688 575.302490234375L307.30322265625 0Z" fill="#172033"/><path transform="translate(411.082,0) scale(0.014770,-0.014770)" d="M156.57562255859375 0V1440H1128.4198608398438V1253.5455322265625H380.36041259765625V854.2776489257812H1028.6124877929688V671.6305541992188H380.36041259765625V186.4544677734375H1142.4198608398438V0Z" fill="#172033"/><path transform="translate(449.544,0) scale(0.014770,-0.014770)" d="M144.39202880859375 534.486083984375V725.513916015625H837.6651611328125V534.486083984375Z" fill="#172033"/><path transform="translate(484.595,0) scale(0.014770,-0.014770)" d="M116.57562255859375 0 196.57562255859375 1440H562.44091796875L930.84423828125 156.651611328125H892.1768188476562L1262.1994018554688 1440H1628.2550659179688L1708.2550659179688 0H1491.2317504882812L1423.1354370117188 1275.4447021484375H1426.1354370117188L1043.30322265625 0H782.9563598632812L398.69525146484375 1275.4447021484375H401.69525146484375L333.59893798828125 0Z" fill="#172033"/><path transform="translate(518.204,0) scale(0.014770,-0.014770)" d="M16.192626953125 0 605.15576171875 1440H857.495849609375L1444.458984375 0H1204.8668212890625L730.945068359375 1239.6260375976562L255.7847900390625 0ZM344.945068359375 445.348388671875V627.2340087890625H1114.945068359375V445.348388671875Z" fill="#172033"/><path transform="translate(546.438,0) scale(0.014770,-0.014770)" d="M156.57562255859375 0V1440H749.7411499023438Q1254.5003662109375 1440 1254.5003662109375 1048.2453002929688Q1254.5003662109375 654.2520751953125 735.3190307617188 654.2520751953125H380.36041259765625V0ZM1009.5711059570312 0 616.7200927734375 715.6741943359375H867.55078125L1262.1151123046875 0ZM380.36041259765625 833.4725341796875H743.2686157226562Q880.4343192185028 833.4725341796875 954.4316066307358 888.167167894768Q1028.4288940429688 942.8618016098485 1028.4288940429688 1045.81640625Q1028.4288940429688 1149.6233901325454 954.0436401367188 1205.2014655740852Q879.6583862304688 1260.779541015625 741.5552978515625 1260.779541015625H380.36041259765625Z" fill="#172033"/><path transform="translate(572.810,0) scale(0.014770,-0.014770)" d="M156.57562255859375 0V1440H749.7411499023438Q1254.5003662109375 1440 1254.5003662109375 1048.2453002929688Q1254.5003662109375 654.2520751953125 735.3190307617188 654.2520751953125H380.36041259765625V0ZM1009.5711059570312 0 616.7200927734375 715.6741943359375H867.55078125L1262.1151123046875 0ZM380.36041259765625 833.4725341796875H743.2686157226562Q880.4343192185028 833.4725341796875 954.4316066307358 888.167167894768Q1028.4288940429688 942.8618016098485 1028.4288940429688 1045.81640625Q1028.4288940429688 1149.6233901325454 954.0436401367188 1205.2014655740852Q879.6583862304688 1260.779541015625 741.5552978515625 1260.779541015625H380.36041259765625Z" fill="#172033"/><path transform="translate(599.182,0) scale(0.014770,-0.014770)" d="M16.192626953125 0 605.15576171875 1440H857.495849609375L1444.458984375 0H1204.8668212890625L730.945068359375 1239.6260375976562L255.7847900390625 0ZM344.945068359375 445.348388671875V627.2340087890625H1114.945068359375V445.348388671875Z" fill="#172033"/><path transform="translate(627.416,0) scale(0.014770,-0.014770)" d="M156.57562255859375 0V1440H380.36041259765625V798.8419799804688L1044.238525390625 1440H1335.4981079101562L790.1610107421875 912.238525390625L1356.2550659179688 0H1091.4243774414062L626.4612426757812 753.5869140625L380.36041259765625 515.6787109375V0Z" fill="#172033"/><path transform="translate(654.704,0) scale(0.014770,-0.014770)" d="M156.57562255859375 0V1440H1128.4198608398438V1253.5455322265625H380.36041259765625V854.2776489257812H1028.6124877929688V671.6305541992188H380.36041259765625V186.4544677734375H1142.4198608398438V0Z" fill="#172033"/><path transform="translate(679.275,0) scale(0.014770,-0.014770)" d="M771.9518432617188 -24.761474609375Q564.3348388671875 -24.761474609375 409.12152099609375 70.28668212890625Q253.908203125 165.3348388671875 168.33709716796875 334.5492858886719Q82.7659912109375 503.76373291015625 82.7659912109375 725.6674194335938Q82.7659912109375 942.7133178710938 165.50338745117188 1109.0940551757812Q248.24078369140625 1275.4747924804688 402.2396545410156 1370.1181335449219Q556.238525390625 1464.761474609375 770.3325805664062 1464.761474609375Q995.6124877929688 1464.761474609375 1160.1343078613281 1349.7637329101562Q1324.6561279296875 1234.7659912109375 1378.036865234375 1006.0526733398438L1145.15576171875 951.5342407226562Q1106.724609375 1118.302490234375 1006.9826965332031 1198.3047485351562Q907.2407836914062 1278.3070068359375 767.9036865234375 1278.3070068359375Q626.5643310546875 1278.3070068359375 526.8694458007812 1207.1132507324219Q427.174560546875 1135.9194946289062 374.4578552246094 1010.486083984375Q321.74114990234375 885.0526733398438 321.74114990234375 720.8096313476562Q321.74114990234375 554.1376953125 375.67230224609375 427.7994689941406Q429.60345458984375 301.46124267578125 528.0838928222656 231.48193359375Q626.5643310546875 161.50262451171875 761.4266357421875 161.50262451171875Q907.7659912109375 161.50262451171875 1012.24755859375 248.60232543945312Q1116.7291259765625 335.7020263671875 1147.9194946289062 491.94732666015625L1386.990966796875 433.9495849609375Q1328.1813354492188 210.807373046875 1163.2306213378906 93.02294921875Q998.2799072265625 -24.761474609375 771.9518432617188 -24.761474609375Z" fill="#172033"/><path transform="translate(707.345,0) scale(0.014770,-0.014770)" d="M156.57562255859375 0V1440H380.36041259765625V829.8028564453125H1116.8645629882812V1440H1340.6493530273438V0H1116.8645629882812V643.348388671875H380.36041259765625V0Z" fill="#172033"/></g></g></svg>
